<?xml version="1.0" encoding="UTF-8"?>
<svg xmlns="http://www.w3.org/2000/svg" xmlns:xlink="http://www.w3.org/1999/xlink" width="72px" height="57px" viewBox="0 0 72 57" version="1.1">
<g id="surface1">
<path style=" stroke:none;fill-rule:nonzero;fill:rgb(0%,0%,0%);fill-opacity:1;" d="M 32.4375 0.972656 C 30.539062 1.15625 28.292969 1.589844 27.007812 2.003906 C 26.890625 2.046875 26.535156 2.160156 26.230469 2.257812 C 24.148438 2.929688 21.515625 4.230469 19.617188 5.523438 C 17.179688 7.175781 14.902344 9.351562 13.109375 11.726562 C 11.378906 14.011719 9.753906 17.179688 8.964844 19.78125 C 8.902344 19.980469 8.816406 20.195312 8.777344 20.238281 C 8.71875 20.3125 8.304688 20.335938 7.160156 20.335938 L 5.617188 20.335938 L 5.617188 35.03125 L 8.5625 35.03125 L 8.792969 35.796875 C 9.035156 36.605469 9.148438 36.910156 9.554688 37.96875 C 10.515625 40.449219 11.902344 42.882812 13.507812 44.894531 C 14.992188 46.757812 16.742188 48.472656 18.628906 49.890625 C 20.285156 51.136719 22.640625 52.457031 24.570312 53.222656 C 25.101562 53.429688 25.597656 53.625 25.675781 53.660156 C 26.15625 53.851562 27.539062 54.261719 28.375 54.460938 C 28.957031 54.601562 29.15625 54.640625 30.183594 54.839844 C 30.597656 54.921875 31.523438 55.03125 32.644531 55.144531 C 33.621094 55.242188 35.835938 55.242188 36.8125 55.144531 C 38.410156 54.988281 38.898438 54.921875 40.011719 54.699219 C 44.238281 53.859375 48.324219 51.945312 51.644531 49.242188 C 51.945312 49 52.316406 48.695312 52.46875 48.578125 C 53.296875 47.914062 55.375 45.667969 56.351562 44.382812 C 58.203125 41.925781 59.867188 38.609375 60.664062 35.773438 C 60.714844 35.585938 60.789062 35.351562 60.828125 35.238281 L 60.902344 35.03125 L 62.394531 35.015625 L 63.878906 34.992188 L 63.878906 20.375 L 62.320312 20.351562 C 61.191406 20.335938 60.738281 20.304688 60.6875 20.238281 C 60.648438 20.195312 60.53125 19.882812 60.429688 19.554688 C 59.910156 17.960938 59.0625 16.054688 58.125 14.4375 C 56.875 12.261719 55.699219 10.738281 53.835938 8.863281 C 51.96875 6.992188 50.460938 5.820312 48.289062 4.550781 C 47.503906 4.097656 45.589844 3.117188 45.480469 3.117188 C 45.457031 3.117188 45.28125 3.050781 45.089844 2.960938 C 44.328125 2.621094 43.316406 2.257812 42.636719 2.0625 C 42.496094 2.027344 42.28125 1.964844 42.15625 1.929688 C 40.550781 1.460938 38.984375 1.171875 36.886719 0.964844 C 36.007812 0.875 33.355469 0.882812 32.4375 0.972656 Z M 37.5 1.558594 C 37.789062 1.59375 38.285156 1.667969 38.609375 1.714844 C 39.9375 1.890625 41.867188 2.351562 43.117188 2.78125 C 43.808594 3.019531 44.1875 3.167969 44.238281 3.214844 C 44.261719 3.242188 44.328125 3.265625 44.386719 3.265625 C 44.585938 3.265625 46.875 4.371094 47.882812 4.949219 C 49.101562 5.664062 49.808594 6.136719 50.949219 7.019531 C 51.910156 7.769531 52.003906 7.851562 53.261719 9.09375 C 54.988281 10.792969 56.335938 12.492188 57.589844 14.589844 C 57.953125 15.191406 58.898438 17.070312 59.136719 17.664062 C 59.210938 17.851562 59.304688 18.070312 59.34375 18.160156 C 59.84375 19.394531 60.097656 20.195312 60.015625 20.277344 C 59.976562 20.3125 59.769531 20.335938 59.5625 20.320312 L 59.171875 20.296875 L 58.957031 19.667969 C 58.832031 19.320312 58.707031 18.949219 58.671875 18.84375 C 58.640625 18.734375 58.558594 18.53125 58.5 18.398438 C 58.441406 18.257812 58.292969 17.929688 58.183594 17.664062 C 57.238281 15.519531 55.921875 13.398438 54.375 11.535156 C 53.363281 10.308594 51.511719 8.527344 50.210938 7.53125 C 49.804688 7.214844 48.257812 6.191406 47.695312 5.847656 C 47.128906 5.507812 45.835938 4.839844 45.222656 4.570312 C 44.957031 4.453125 44.609375 4.296875 44.445312 4.230469 C 43.941406 4 42.449219 3.480469 41.816406 3.308594 C 40.210938 2.871094 39.25 2.6875 37.390625 2.441406 C 36.480469 2.324219 33 2.324219 32.070312 2.441406 C 30.472656 2.648438 28.804688 2.960938 28.078125 3.191406 C 27.976562 3.222656 27.746094 3.289062 27.5625 3.339844 C 26.898438 3.53125 25.957031 3.851562 25.382812 4.082031 C 21.984375 5.453125 19.183594 7.3125 16.625 9.871094 C 14.1875 12.3125 12.414062 14.96875 11.046875 18.21875 C 10.882812 18.605469 10.507812 19.617188 10.398438 19.964844 L 10.285156 20.296875 L 9.855469 20.296875 C 9.4375 20.296875 9.421875 20.292969 9.441406 20.113281 C 9.449219 20.007812 9.523438 19.75 9.605469 19.535156 C 9.6875 19.328125 9.828125 18.957031 9.910156 18.71875 C 9.996094 18.488281 10.109375 18.191406 10.160156 18.070312 C 10.210938 17.945312 10.316406 17.703125 10.390625 17.515625 C 10.574219 17.039062 11.335938 15.535156 11.742188 14.8125 C 12.96875 12.691406 14.363281 10.886719 16.195312 9.085938 C 18.441406 6.867188 20.511719 5.402344 23.277344 4.066406 C 23.867188 3.785156 24.40625 3.519531 24.472656 3.480469 C 24.546875 3.445312 24.636719 3.414062 24.679688 3.414062 C 24.722656 3.414062 24.894531 3.347656 25.070312 3.273438 C 27.101562 2.359375 30.628906 1.582031 33.289062 1.453125 C 34.128906 1.410156 36.9375 1.484375 37.5 1.558594 Z M 36.589844 4.675781 C 37.589844 4.78125 38.460938 4.890625 38.828125 4.972656 C 38.992188 5.003906 39.324219 5.078125 39.570312 5.128906 C 40.003906 5.21875 40.417969 5.320312 41.230469 5.535156 C 42.722656 5.9375 45.148438 7 46.597656 7.875 C 50.238281 10.09375 53.136719 13.085938 55.144531 16.722656 C 55.882812 18.058594 56.800781 20.179688 56.691406 20.292969 C 56.667969 20.3125 54.578125 20.335938 52.050781 20.335938 L 47.445312 20.335938 L 47.0625 19.757812 C 46.425781 18.808594 46.042969 18.347656 45.199219 17.5 C 43.175781 15.476562 40.601562 14.050781 37.980469 13.5 C 36.65625 13.21875 36.339844 13.1875 34.804688 13.1875 C 32.917969 13.179688 32.097656 13.300781 30.296875 13.8125 C 30.15625 13.855469 29.964844 13.910156 29.867188 13.929688 C 29.777344 13.953125 29.683594 13.996094 29.660156 14.035156 C 29.636719 14.070312 29.570312 14.101562 29.519531 14.101562 C 29.386719 14.101562 28.617188 14.441406 27.820312 14.851562 C 25.675781 15.957031 23.585938 17.886719 22.21875 20.015625 L 22.019531 20.335938 L 17.417969 20.335938 C 14.882812 20.335938 12.789062 20.3125 12.761719 20.292969 C 12.738281 20.269531 12.746094 20.171875 12.785156 20.089844 C 12.8125 20 12.917969 19.726562 13.011719 19.484375 C 13.25 18.84375 14.136719 17.003906 14.484375 16.433594 C 14.644531 16.15625 14.777344 15.925781 14.777344 15.914062 C 14.777344 15.765625 16.292969 13.679688 17.03125 12.804688 C 19.324219 10.085938 22.804688 7.5625 25.972656 6.332031 C 27.398438 5.773438 27.785156 5.648438 28.78125 5.386719 C 30.089844 5.046875 31.058594 4.875 32.734375 4.683594 C 33.53125 4.59375 35.703125 4.585938 36.589844 4.675781 Z M 36.589844 14.207031 C 39.730469 14.679688 42.242188 15.933594 44.453125 18.148438 C 45.398438 19.089844 46.277344 20.164062 46.210938 20.277344 C 46.191406 20.304688 41.023438 20.335938 34.722656 20.335938 C 25.457031 20.335938 23.277344 20.320312 23.277344 20.238281 C 23.277344 19.90625 25.34375 17.679688 26.378906 16.90625 C 27.65625 15.949219 28.964844 15.257812 30.480469 14.753906 C 31.152344 14.523438 31.890625 14.359375 32.808594 14.21875 C 33.679688 14.078125 35.726562 14.078125 36.589844 14.207031 Z M 24.511719 23.386719 C 25.589844 23.726562 26.402344 24.828125 26.792969 26.457031 C 26.925781 27 26.941406 29.09375 26.824219 29.5625 C 26.628906 30.289062 26.558594 30.488281 26.320312 30.972656 C 25.996094 31.632812 25.34375 32.300781 24.777344 32.566406 C 24.429688 32.730469 24.214844 32.765625 23.652344 32.789062 C 22.640625 32.835938 22.136719 32.640625 21.441406 31.964844 C 20.5625 31.105469 20.097656 29.738281 20.097656 28.015625 C 20.097656 27.207031 20.261719 26.15625 20.46875 25.640625 C 20.949219 24.402344 21.84375 23.511719 22.832031 23.296875 C 23.1875 23.214844 24.132812 23.265625 24.511719 23.386719 Z M 16.855469 23.394531 C 16.996094 23.4375 17.222656 23.558594 17.363281 23.652344 C 17.691406 23.867188 17.71875 23.867188 17.75 23.617188 L 17.769531 23.414062 L 18.464844 23.394531 C 18.976562 23.378906 19.183594 23.402344 19.226562 23.46875 C 19.316406 23.609375 19.300781 25.960938 19.210938 26.132812 C 19.144531 26.25 19.050781 26.273438 18.546875 26.273438 C 17.84375 26.273438 17.734375 26.234375 17.734375 26 C 17.734375 25.671875 17.570312 25.121094 17.417969 24.953125 C 17.1875 24.699219 16.617188 24.714844 16.410156 24.980469 C 16.019531 25.480469 16.285156 25.960938 17.496094 27.007812 C 18.960938 28.253906 19.398438 28.9375 19.484375 30.074219 C 19.640625 32.03125 17.777344 33.390625 16.203125 32.464844 C 15.820312 32.242188 15.738281 32.242188 15.738281 32.46875 L 15.738281 32.65625 L 14.1875 32.65625 L 14.203125 31.148438 L 14.222656 29.648438 L 15.703125 29.648438 L 15.769531 30.230469 C 15.820312 30.734375 15.863281 30.84375 16.070312 31.066406 C 16.257812 31.261719 16.367188 31.320312 16.558594 31.320312 C 17.1875 31.3125 17.496094 30.535156 17.148438 29.851562 C 17.070312 29.703125 16.476562 29.054688 15.828125 28.417969 C 14.824219 27.429688 14.617188 27.1875 14.402344 26.75 C 14.171875 26.273438 14.148438 26.183594 14.15625 25.53125 C 14.164062 24.722656 14.261719 24.441406 14.691406 23.957031 C 15.207031 23.386719 16.128906 23.140625 16.855469 23.394531 Z M 35.3125 23.394531 C 35.757812 23.542969 36.347656 23.972656 36.570312 24.300781 C 36.917969 24.828125 36.984375 25.0625 36.976562 25.863281 C 36.976562 26.546875 36.953125 26.652344 36.722656 27.125 C 36.515625 27.578125 36.316406 27.808594 35.246094 28.871094 C 34.566406 29.546875 33.953125 30.183594 33.886719 30.296875 C 33.6875 30.601562 33.53125 31.246094 33.648438 31.289062 C 33.703125 31.3125 34.136719 31.3125 34.625 31.304688 L 35.503906 31.28125 L 35.527344 30.652344 C 35.542969 30.265625 35.585938 30.007812 35.636719 29.96875 C 35.785156 29.871094 36.835938 29.902344 36.96875 30.007812 C 37.085938 30.089844 37.09375 30.238281 37.078125 31.355469 L 37.058594 32.617188 L 34.492188 32.640625 L 31.921875 32.65625 L 31.921875 32.085938 C 31.929688 31.558594 32.003906 31.097656 32.203125 30.453125 C 32.355469 29.96875 32.757812 29.316406 33.347656 28.617188 C 34.175781 27.625 34.402344 27.328125 34.574219 26.976562 C 35.011719 26.085938 34.941406 24.921875 34.433594 24.714844 C 34.195312 24.617188 33.921875 24.714844 33.777344 24.960938 C 33.714844 25.046875 33.65625 25.414062 33.636719 25.777344 L 33.597656 26.445312 L 32.824219 26.390625 C 32.386719 26.371094 32.003906 26.308594 31.9375 26.257812 C 31.855469 26.183594 31.839844 26.050781 31.871094 25.65625 C 31.964844 24.558594 32.421875 23.867188 33.324219 23.460938 C 33.714844 23.289062 34.882812 23.246094 35.3125 23.394531 Z M 41.386719 23.542969 C 41.917969 23.808594 42.308594 24.203125 42.546875 24.714844 C 42.703125 25.046875 42.730469 25.242188 42.738281 25.789062 C 42.746094 26.984375 42.539062 27.347656 40.964844 28.90625 C 39.679688 30.175781 39.480469 30.445312 39.347656 31.074219 L 39.296875 31.320312 L 41.230469 31.320312 L 41.230469 30.6875 C 41.230469 29.941406 41.261719 29.910156 42.058594 29.910156 C 42.886719 29.910156 42.863281 29.867188 42.84375 31.355469 L 42.820312 32.617188 L 37.664062 32.617188 L 37.675781 32.011719 C 37.707031 30.785156 38.121094 29.777344 39.035156 28.683594 C 40.316406 27.15625 40.433594 26.957031 40.558594 26.125 C 40.671875 25.449219 40.566406 24.996094 40.257812 24.765625 C 40.085938 24.640625 40.035156 24.632812 39.835938 24.714844 C 39.496094 24.855469 39.449219 24.953125 39.398438 25.695312 L 39.347656 26.382812 L 38.578125 26.371094 C 38.148438 26.363281 37.75 26.332031 37.699219 26.308594 C 37.609375 26.28125 37.597656 26.148438 37.632812 25.640625 C 37.699219 24.722656 38.054688 24.070312 38.71875 23.652344 C 39.175781 23.363281 39.398438 23.3125 40.195312 23.328125 C 40.875 23.34375 41.023438 23.363281 41.386719 23.542969 Z M 47.023438 23.445312 C 47.601562 23.699219 48.101562 24.335938 48.339844 25.121094 C 48.539062 25.804688 48.621094 26.621094 48.621094 28.089844 C 48.621094 30.910156 48.257812 32.003906 47.105469 32.664062 C 46.855469 32.804688 46.699219 32.835938 46.109375 32.835938 C 45.488281 32.835938 45.363281 32.8125 45.035156 32.640625 C 44.289062 32.25 43.929688 31.648438 43.664062 30.355469 C 43.589844 30.019531 43.558594 29.308594 43.558594 28.054688 C 43.558594 25.886719 43.675781 25.117188 44.148438 24.3125 C 44.386719 23.914062 44.578125 23.734375 45.035156 23.496094 C 45.523438 23.246094 46.5 23.222656 47.023438 23.445312 Z M 52.714844 23.414062 C 53.070312 23.5625 53.625 24.078125 53.792969 24.417969 C 54.222656 25.269531 54.382812 26.257812 54.382812 28.128906 C 54.382812 30.890625 53.933594 32.179688 52.773438 32.707031 C 52.398438 32.878906 51.273438 32.878906 50.890625 32.699219 C 50.203125 32.398438 49.765625 31.78125 49.484375 30.703125 C 49.34375 30.15625 49.328125 29.894531 49.324219 28.128906 C 49.324219 25.859375 49.398438 25.285156 49.816406 24.453125 C 50.222656 23.660156 50.828125 23.3125 51.804688 23.3125 C 52.226562 23.304688 52.535156 23.34375 52.714844 23.414062 Z M 58.558594 23.460938 C 59.144531 23.734375 59.675781 24.453125 59.867188 25.234375 C 60.242188 26.75 60.242188 29.449219 59.867188 30.949219 C 59.675781 31.722656 59.230469 32.328125 58.640625 32.640625 C 58.316406 32.8125 58.175781 32.835938 57.597656 32.835938 C 56.835938 32.828125 56.542969 32.722656 56.082031 32.316406 C 55.425781 31.722656 55.195312 31.007812 55.042969 29.144531 C 54.910156 27.484375 55.136719 25.25 55.53125 24.492188 C 55.738281 24.089844 56.179688 23.660156 56.5625 23.484375 C 57.082031 23.246094 58.078125 23.238281 58.558594 23.460938 Z M 13.707031 23.550781 C 13.730469 23.640625 13.742188 23.949219 13.730469 24.234375 L 13.707031 24.75 L 13.210938 24.773438 L 12.710938 24.796875 L 12.710938 31.246094 L 13.191406 31.246094 C 13.75 31.246094 13.765625 31.269531 13.730469 32.101562 L 13.707031 32.617188 L 11.503906 32.640625 L 9.304688 32.65625 L 9.324219 31.972656 L 9.347656 31.28125 L 9.789062 31.246094 L 10.234375 31.207031 L 10.234375 24.828125 L 9.777344 24.804688 L 9.308594 24.78125 L 9.308594 24.128906 C 9.308594 23.773438 9.332031 23.453125 9.363281 23.429688 C 9.382812 23.402344 10.367188 23.378906 11.535156 23.378906 L 13.671875 23.378906 Z M 10.109375 35.230469 C 10.144531 35.351562 10.261719 35.707031 10.367188 36.03125 C 10.765625 37.300781 11.71875 39.484375 12.390625 40.671875 C 13.972656 43.441406 16.226562 46.132812 18.511719 47.96875 C 18.960938 48.324219 19.382812 48.664062 19.449219 48.726562 C 19.640625 48.886719 21.273438 49.972656 21.6875 50.210938 C 23.128906 51.054688 25.183594 52.003906 26.488281 52.4375 C 27.308594 52.703125 27.828125 52.851562 28.671875 53.050781 C 29.84375 53.339844 30.855469 53.519531 32.105469 53.667969 C 33.050781 53.777344 36.398438 53.785156 37.316406 53.675781 C 38.785156 53.488281 40.683594 53.140625 41.378906 52.917969 C 41.484375 52.886719 41.710938 52.820312 41.898438 52.769531 C 42.644531 52.554688 43.589844 52.226562 44.148438 51.992188 C 44.277344 51.9375 44.675781 51.765625 45.035156 51.613281 C 49.691406 49.636719 54.175781 45.644531 56.785156 41.15625 C 57.25 40.359375 58.226562 38.445312 58.226562 38.335938 C 58.226562 38.320312 58.308594 38.125 58.402344 37.910156 C 58.609375 37.464844 58.816406 36.886719 59.089844 36.03125 C 59.429688 34.949219 59.371094 35.03125 59.824219 35.03125 C 60.035156 35.03125 60.230469 35.0625 60.257812 35.105469 C 60.316406 35.203125 59.710938 37.09375 59.335938 37.976562 C 59.289062 38.074219 59.230469 38.222656 59.195312 38.3125 C 59.011719 38.78125 58.050781 40.710938 57.730469 41.265625 C 56.535156 43.34375 55.359375 44.886719 53.617188 46.667969 C 51.8125 48.515625 50.039062 49.90625 47.882812 51.160156 C 47.328125 51.476562 45.363281 52.464844 44.964844 52.621094 C 44.882812 52.652344 44.734375 52.710938 44.628906 52.753906 C 44.453125 52.828125 44.054688 52.976562 43.210938 53.28125 C 41.667969 53.839844 39.546875 54.304688 37.390625 54.566406 C 36.398438 54.675781 32.925781 54.675781 31.996094 54.558594 C 30.523438 54.371094 28.890625 54.070312 27.96875 53.808594 C 27.40625 53.652344 26.179688 53.273438 26.046875 53.214844 C 25.964844 53.183594 25.449219 52.976562 24.902344 52.761719 C 23.835938 52.347656 22.433594 51.664062 21.65625 51.195312 C 21.40625 51.039062 21.175781 50.914062 21.15625 50.914062 C 21.089844 50.914062 19.085938 49.546875 18.671875 49.214844 C 17.550781 48.324219 17.105469 47.929688 16.160156 46.988281 C 15.25 46.097656 14.371094 45.117188 13.929688 44.523438 C 13.847656 44.421875 13.640625 44.136719 13.464844 43.90625 C 12.597656 42.765625 11.691406 41.28125 10.957031 39.8125 C 10.21875 38.320312 9.089844 35.285156 9.207031 35.097656 C 9.230469 35.0625 9.421875 35.03125 9.636719 35.03125 C 9.996094 35.03125 10.035156 35.046875 10.109375 35.230469 Z M 21.695312 35.230469 C 22.601562 36.738281 23.238281 37.570312 24.238281 38.578125 C 25.402344 39.757812 26.460938 40.53125 27.96875 41.324219 C 29.378906 42.058594 30.796875 42.519531 32.660156 42.832031 C 33.488281 42.972656 36.066406 42.949219 36.984375 42.800781 C 40.203125 42.265625 42.9375 40.871094 45.207031 38.601562 C 46.175781 37.636719 46.882812 36.703125 47.785156 35.195312 L 47.882812 35.03125 L 52.390625 35.03125 C 55.070312 35.03125 56.902344 35.0625 56.933594 35.097656 C 56.96875 35.164062 56.828125 35.667969 56.675781 36.03125 C 56.644531 36.113281 56.542969 36.382812 56.453125 36.625 C 55.996094 37.851562 54.921875 39.886719 54.082031 41.109375 C 53.4375 42.050781 53.429688 42.066406 53.054688 42.535156 C 51.605469 44.339844 50.4375 45.480469 48.804688 46.71875 C 48.171875 47.203125 46.882812 48.09375 46.816406 48.09375 C 46.804688 48.09375 46.574219 48.226562 46.300781 48.390625 C 45.746094 48.726562 43.90625 49.628906 43.300781 49.851562 C 43.078125 49.941406 42.746094 50.066406 42.5625 50.132812 C 42.183594 50.277344 41.785156 50.402344 41.304688 50.542969 C 41.121094 50.59375 40.890625 50.660156 40.789062 50.691406 C 39.339844 51.152344 36.664062 51.507812 34.671875 51.507812 C 32.808594 51.507812 30.066406 51.136719 28.671875 50.691406 C 28.566406 50.660156 28.335938 50.59375 28.152344 50.542969 C 27.671875 50.402344 27.273438 50.277344 26.898438 50.132812 C 26.710938 50.066406 26.378906 49.941406 26.15625 49.851562 C 25.550781 49.628906 23.710938 48.726562 23.15625 48.390625 C 22.882812 48.226562 22.65625 48.09375 22.640625 48.09375 C 22.582031 48.09375 21.25 47.179688 20.761719 46.808594 C 18.902344 45.371094 17.527344 44.003906 16.175781 42.230469 C 15.664062 41.5625 14.777344 40.265625 14.777344 40.183594 C 14.777344 40.160156 14.710938 40.039062 14.628906 39.929688 C 14.386719 39.582031 13.34375 37.496094 13.101562 36.851562 C 12.523438 35.359375 12.472656 35.1875 12.53125 35.097656 C 12.554688 35.0625 14.59375 35.03125 17.070312 35.03125 L 21.578125 35.03125 Z M 46.664062 35.105469 C 46.683594 35.140625 46.601562 35.335938 46.46875 35.527344 C 45.222656 37.390625 43.398438 39.15625 41.785156 40.078125 C 39.480469 41.398438 37.257812 42.007812 34.730469 42.007812 C 32.210938 42.007812 29.992188 41.398438 27.671875 40.078125 C 26.0625 39.164062 24.042969 37.199219 22.996094 35.519531 C 22.871094 35.320312 22.78125 35.128906 22.804688 35.097656 C 22.863281 35 46.601562 35.007812 46.664062 35.105469 Z M 46.664062 35.105469 "/>
<path style=" stroke:none;fill-rule:nonzero;fill:rgb(0%,0%,0%);fill-opacity:1;" d="M 33.140625 6.9375 C 33.101562 6.945312 32.769531 7 32.402344 7.050781 C 32.039062 7.09375 31.589844 7.164062 31.402344 7.199219 C 31.21875 7.234375 30.761719 7.304688 30.382812 7.355469 L 29.691406 7.453125 L 29.734375 7.679688 C 29.761719 7.800781 29.816406 8.132812 29.851562 8.417969 C 29.898438 8.691406 29.949219 8.949219 29.96875 8.988281 C 29.992188 9.023438 30.140625 9.054688 30.308594 9.054688 L 30.613281 9.054688 L 30.511719 8.03125 L 30.777344 7.984375 C 30.917969 7.957031 31.0625 7.957031 31.101562 7.976562 C 31.136719 8 31.203125 8.261719 31.257812 8.558594 C 31.300781 8.847656 31.375 9.277344 31.410156 9.5 C 31.449219 9.722656 31.492188 10.109375 31.5 10.351562 L 31.515625 10.796875 L 31.257812 10.835938 C 31.003906 10.875 30.996094 10.878906 31.019531 11.171875 C 31.035156 11.332031 31.058594 11.472656 31.070312 11.488281 C 31.128906 11.554688 33.214844 11.207031 33.289062 11.117188 C 33.355469 11.050781 33.363281 10.945312 33.308594 10.777344 C 33.25 10.546875 33.222656 10.53125 32.992188 10.554688 C 32.851562 10.5625 32.703125 10.539062 32.667969 10.5 C 32.601562 10.433594 32.277344 8.371094 32.261719 7.941406 C 32.253906 7.785156 32.296875 7.757812 32.527344 7.710938 C 32.675781 7.6875 32.828125 7.6875 32.867188 7.710938 C 32.902344 7.734375 32.964844 7.941406 33 8.164062 C 33.058594 8.550781 33.082031 8.570312 33.289062 8.59375 C 33.703125 8.625 33.730469 8.550781 33.628906 7.816406 C 33.511719 6.976562 33.4375 6.84375 33.140625 6.9375 Z M 33.140625 6.9375 "/>
<path style=" stroke:none;fill-rule:nonzero;fill:rgb(0%,0%,0%);fill-opacity:1;" d="M 34.675781 6.984375 C 34.625 7.035156 34.582031 7.191406 34.582031 7.324219 C 34.582031 7.554688 34.597656 7.570312 34.832031 7.570312 C 34.964844 7.570312 35.113281 7.613281 35.15625 7.660156 C 35.253906 7.777344 35.15625 10.285156 35.054688 10.382812 C 35.015625 10.421875 34.871094 10.464844 34.730469 10.480469 C 34.484375 10.5 34.46875 10.515625 34.449219 10.804688 L 34.425781 11.117188 L 35.519531 11.175781 C 36.117188 11.214844 36.648438 11.238281 36.6875 11.242188 C 36.730469 11.242188 36.769531 11.089844 36.785156 10.886719 L 36.804688 10.539062 L 36.183594 10.539062 L 36.230469 9.203125 C 36.273438 7.703125 36.304688 7.609375 36.703125 7.679688 L 36.945312 7.726562 L 36.945312 6.976562 L 36.175781 6.976562 C 35.757812 6.976562 35.269531 6.953125 35.089844 6.933594 C 34.875 6.902344 34.738281 6.925781 34.675781 6.984375 Z M 34.675781 6.984375 "/>
<path style=" stroke:none;fill-rule:nonzero;fill:rgb(0%,0%,0%);fill-opacity:1;" d="M 38.070312 7.3125 C 37.921875 7.644531 37.957031 7.792969 38.203125 7.84375 C 38.328125 7.867188 38.445312 7.910156 38.46875 7.949219 C 38.503906 8.007812 38.082031 9.839844 37.890625 10.457031 C 37.816406 10.695312 37.804688 10.703125 37.53125 10.65625 C 37.25 10.613281 37.25 10.613281 37.160156 10.910156 C 37.109375 11.074219 37.085938 11.214844 37.101562 11.230469 C 37.160156 11.273438 39.058594 11.726562 39.175781 11.726562 C 39.316406 11.726562 39.457031 11.511719 39.457031 11.289062 C 39.457031 11.191406 39.390625 11.132812 39.242188 11.09375 C 38.902344 11.023438 38.867188 10.925781 38.992188 10.429688 C 39.050781 10.183594 39.125 9.960938 39.15625 9.929688 C 39.183594 9.894531 39.382812 9.914062 39.605469 9.976562 C 39.828125 10.035156 40.011719 10.078125 40.011719 10.070312 C 40.019531 10.0625 40.058594 9.929688 40.109375 9.78125 C 40.226562 9.433594 40.195312 9.382812 39.84375 9.328125 C 39.695312 9.300781 39.511719 9.242188 39.441406 9.1875 C 39.332031 9.097656 39.324219 9.054688 39.421875 8.691406 C 39.480469 8.46875 39.546875 8.273438 39.570312 8.253906 C 39.613281 8.207031 40.300781 8.34375 40.589844 8.453125 C 40.757812 8.519531 40.789062 8.570312 40.789062 8.832031 C 40.789062 9.078125 40.816406 9.136719 40.964844 9.171875 C 41.3125 9.261719 41.484375 9.179688 41.550781 8.90625 C 41.742188 8.089844 41.742188 8.082031 41.5625 8.015625 C 41.476562 7.984375 40.714844 7.785156 39.871094 7.570312 C 39.023438 7.363281 38.289062 7.167969 38.246094 7.15625 C 38.195312 7.132812 38.113281 7.207031 38.070312 7.3125 Z M 38.070312 7.3125 "/>
<path style=" stroke:none;fill-rule:nonzero;fill:rgb(0%,0%,0%);fill-opacity:1;" d="M 27.375 8.28125 C 27.183594 8.335938 26.4375 8.617188 26.34375 8.683594 C 26.304688 8.714844 25.914062 8.875 25.476562 9.054688 C 25.035156 9.226562 24.679688 9.375 24.679688 9.390625 C 24.679688 9.394531 24.730469 9.53125 24.789062 9.679688 C 24.910156 9.953125 25.027344 10.003906 25.269531 9.871094 C 25.441406 9.78125 25.542969 9.914062 25.789062 10.539062 C 25.949219 10.960938 26.03125 11.140625 26.289062 11.734375 C 26.5625 12.351562 26.570312 12.4375 26.304688 12.550781 C 26.113281 12.640625 26.082031 12.683594 26.121094 12.839844 C 26.179688 13.0625 26.289062 13.210938 26.417969 13.210938 C 26.59375 13.210938 28.183594 12.519531 28.25 12.417969 C 28.269531 12.378906 28.242188 12.246094 28.175781 12.113281 C 28.0625 11.882812 27.84375 11.792969 27.746094 11.949219 C 27.695312 12.03125 27.488281 11.964844 27.488281 11.867188 C 27.488281 11.816406 27.304688 11.371094 27.148438 11.058594 C 27.101562 10.96875 27.238281 10.84375 27.429688 10.796875 C 27.589844 10.753906 27.703125 10.820312 28.125 11.175781 C 28.402344 11.414062 28.691406 11.667969 28.765625 11.734375 C 29.089844 12.03125 29.222656 12.054688 29.683594 11.875 C 30.289062 11.636719 30.339844 11.570312 30.222656 11.265625 C 30.164062 11.132812 30.109375 11.007812 30.101562 11 C 30.097656 10.984375 29.96875 11.015625 29.828125 11.066406 C 29.578125 11.15625 29.5625 11.148438 29.046875 10.726562 C 28.757812 10.496094 28.523438 10.273438 28.523438 10.226562 C 28.523438 10.191406 28.589844 10.035156 28.671875 9.871094 C 28.847656 9.523438 28.855469 9.3125 28.707031 8.957031 C 28.507812 8.484375 27.878906 8.164062 27.375 8.28125 Z M 27.554688 9.234375 C 27.84375 9.460938 27.738281 9.921875 27.339844 10.132812 C 26.96875 10.324219 26.84375 10.28125 26.675781 9.902344 C 26.585938 9.714844 26.527344 9.507812 26.542969 9.441406 C 26.570312 9.300781 27.171875 9.054688 27.339844 9.113281 C 27.398438 9.136719 27.496094 9.1875 27.554688 9.234375 Z M 27.554688 9.234375 "/>
<path style=" stroke:none;fill-rule:nonzero;fill:rgb(0%,0%,0%);fill-opacity:1;" d="M 42.65625 8.558594 C 42.449219 8.875 42.414062 9.003906 42.496094 9.097656 C 42.539062 9.160156 42.621094 9.203125 42.671875 9.203125 C 42.722656 9.203125 42.804688 9.253906 42.855469 9.3125 C 42.929688 9.402344 42.886719 9.550781 42.621094 10.109375 C 42.441406 10.488281 42.175781 11.042969 42.042969 11.332031 C 41.835938 11.769531 41.757812 11.875 41.625 11.875 C 41.535156 11.875 41.4375 11.835938 41.417969 11.800781 C 41.285156 11.585938 40.9375 11.890625 40.9375 12.222656 C 40.9375 12.296875 42.828125 13.285156 42.96875 13.285156 C 43.019531 13.285156 43.226562 12.855469 43.226562 12.75 C 43.226562 12.699219 43.128906 12.609375 43.003906 12.558594 C 42.886719 12.5 42.785156 12.410156 42.785156 12.351562 C 42.785156 12.289062 42.976562 11.835938 43.21875 11.332031 C 43.457031 10.835938 43.707031 10.300781 43.78125 10.144531 C 43.890625 9.914062 43.941406 9.871094 44.070312 9.902344 C 44.550781 10.042969 44.542969 10.042969 44.667969 9.804688 C 44.734375 9.671875 44.761719 9.539062 44.734375 9.492188 C 44.710938 9.449219 44.371094 9.261719 43.980469 9.078125 C 43.582031 8.890625 43.136719 8.675781 42.988281 8.601562 C 42.785156 8.492188 42.703125 8.484375 42.65625 8.558594 Z M 42.65625 8.558594 "/>
<path style=" stroke:none;fill-rule:nonzero;fill:rgb(0%,0%,0%);fill-opacity:1;" d="M 45.648438 10.273438 C 45.480469 10.507812 45.480469 10.597656 45.679688 10.753906 L 45.84375 10.886719 L 45 12.015625 C 44.542969 12.632812 44.144531 13.136719 44.113281 13.136719 C 44.089844 13.136719 44.003906 13.085938 43.921875 13.023438 C 43.847656 12.964844 43.742188 12.914062 43.707031 12.914062 C 43.625 12.914062 43.328125 13.410156 43.382812 13.464844 C 43.671875 13.722656 46.210938 15.585938 46.277344 15.578125 C 46.328125 15.578125 46.515625 15.378906 46.691406 15.125 C 47.046875 14.636719 47.046875 14.578125 46.671875 14.292969 L 46.464844 14.140625 L 46.300781 14.339844 C 46.210938 14.457031 46.09375 14.546875 46.042969 14.546875 C 45.894531 14.546875 45.082031 13.929688 45.074219 13.820312 C 45.074219 13.707031 45.304688 13.359375 45.554688 13.085938 L 45.703125 12.914062 L 46.109375 13.21875 L 46.507812 13.53125 L 46.675781 13.328125 C 46.914062 13.054688 46.890625 12.964844 46.535156 12.683594 C 46.359375 12.542969 46.195312 12.402344 46.175781 12.363281 C 46.117188 12.289062 46.601562 11.578125 46.714844 11.578125 C 46.824219 11.578125 47.644531 12.195312 47.691406 12.304688 C 47.710938 12.363281 47.660156 12.511719 47.570312 12.632812 L 47.410156 12.863281 L 47.628906 13.03125 C 47.957031 13.300781 48.101562 13.253906 48.457031 12.765625 C 48.628906 12.527344 48.769531 12.304688 48.769531 12.277344 C 48.761719 12.1875 46.042969 10.152344 45.894531 10.125 C 45.828125 10.109375 45.714844 10.175781 45.648438 10.273438 Z M 45.648438 10.273438 "/>
<path style=" stroke:none;fill-rule:nonzero;fill:rgb(0%,0%,0%);fill-opacity:1;" d="M 22.128906 11.140625 C 20.371094 12.484375 20.503906 12.335938 20.792969 12.660156 C 20.964844 12.863281 20.96875 12.863281 21.148438 12.75 C 21.363281 12.609375 21.390625 12.632812 21.921875 13.320312 C 22.078125 13.53125 22.402344 13.960938 22.640625 14.273438 L 23.078125 14.851562 L 22.914062 15.015625 C 22.722656 15.230469 22.722656 15.273438 22.941406 15.535156 L 23.128906 15.742188 L 23.335938 15.570312 C 23.5625 15.378906 23.617188 15.347656 24.996094 14.289062 C 25.535156 13.871094 25.972656 13.5 25.972656 13.449219 C 25.972656 13.320312 25.335938 12.46875 25.242188 12.46875 C 25.195312 12.476562 25.050781 12.574219 24.910156 12.691406 L 24.664062 12.898438 L 24.828125 13.136719 C 24.96875 13.328125 24.976562 13.382812 24.886719 13.484375 C 24.730469 13.679688 24.015625 14.191406 23.941406 14.160156 C 23.902344 14.144531 23.734375 13.953125 23.570312 13.730469 L 23.269531 13.320312 L 23.585938 13.046875 C 23.761719 12.890625 23.925781 12.765625 23.964844 12.765625 C 24.125 12.757812 23.851562 12.171875 23.683594 12.171875 C 23.652344 12.171875 23.46875 12.289062 23.277344 12.429688 C 23.082031 12.574219 22.890625 12.691406 22.847656 12.691406 C 22.757812 12.691406 22.316406 12.082031 22.316406 11.964844 C 22.316406 11.917969 22.46875 11.757812 22.671875 11.601562 C 23.3125 11.074219 23.246094 11.089844 23.488281 11.363281 L 23.710938 11.601562 L 23.96875 11.398438 C 24.117188 11.289062 24.238281 11.171875 24.238281 11.132812 C 24.238281 11.007812 23.5625 10.167969 23.476562 10.175781 C 23.421875 10.175781 22.824219 10.613281 22.128906 11.140625 Z M 22.128906 11.140625 "/>
<path style=" stroke:none;fill-rule:nonzero;fill:rgb(0%,0%,0%);fill-opacity:1;" d="M 49.601562 13.382812 C 49.316406 13.574219 49.316406 13.605469 49.523438 13.894531 L 49.675781 14.125 L 49.417969 14.355469 C 49.109375 14.628906 48.023438 15.480469 47.691406 15.710938 L 47.445312 15.882812 L 47.289062 15.660156 C 47.097656 15.394531 47.023438 15.386719 46.75 15.628906 L 46.535156 15.816406 L 46.863281 16.230469 C 47.03125 16.460938 47.285156 16.78125 47.410156 16.953125 C 48.4375 18.296875 48.820312 18.578125 49.601562 18.570312 C 50.203125 18.5625 50.695312 18.347656 51.15625 17.902344 C 51.714844 17.351562 51.929688 16.75 51.789062 16.105469 C 51.695312 15.660156 51.53125 15.355469 51.082031 14.769531 C 50.902344 14.546875 50.570312 14.101562 50.34375 13.789062 C 50.105469 13.476562 49.898438 13.21875 49.875 13.21875 C 49.855469 13.21875 49.730469 13.292969 49.601562 13.382812 Z M 50.882812 15.785156 C 50.992188 16.074219 50.992188 16.121094 50.875 16.417969 C 50.660156 16.964844 50.136719 17.410156 49.449219 17.625 C 49.210938 17.695312 48.671875 17.417969 48.398438 17.085938 C 48.273438 16.9375 48.175781 16.789062 48.175781 16.757812 C 48.175781 16.730469 48.441406 16.492188 48.777344 16.238281 C 49.101562 15.980469 49.589844 15.59375 49.863281 15.378906 L 50.355469 14.984375 L 50.558594 15.230469 C 50.667969 15.363281 50.816406 15.617188 50.882812 15.785156 Z M 50.882812 15.785156 "/>
<path style=" stroke:none;fill-rule:nonzero;fill:rgb(0%,0%,0%);fill-opacity:1;" d="M 19.21875 13.6875 C 19.101562 13.8125 19.058594 13.921875 19.085938 14.042969 C 19.125 14.183594 19.078125 14.242188 18.769531 14.414062 C 18.238281 14.710938 17.816406 15.328125 17.667969 16.015625 C 17.476562 16.929688 18 17.878906 18.960938 18.363281 C 19.46875 18.621094 20.164062 18.628906 20.675781 18.390625 C 21.597656 17.953125 22.308594 16.699219 22.09375 15.875 C 21.960938 15.355469 21.84375 15.140625 21.703125 15.140625 C 21.570312 15.140625 20.984375 15.414062 20.984375 15.476562 C 20.984375 15.488281 21.050781 15.617188 21.132812 15.75 C 21.355469 16.121094 21.332031 16.722656 21.089844 17.046875 C 20.695312 17.566406 20.011719 17.679688 19.425781 17.308594 C 18.488281 16.707031 18.304688 15.832031 18.960938 15.164062 C 19.269531 14.851562 19.300781 14.84375 19.742188 14.84375 C 20.195312 14.84375 20.214844 14.835938 20.386719 14.578125 C 20.542969 14.355469 20.558594 14.300781 20.460938 14.25 C 20.410156 14.210938 20.164062 14.035156 19.921875 13.847656 C 19.683594 13.664062 19.464844 13.507812 19.441406 13.507812 C 19.410156 13.507812 19.308594 13.589844 19.21875 13.6875 Z M 19.21875 13.6875 "/>
<path style=" stroke:none;fill-rule:nonzero;fill:rgb(0%,0%,0%);fill-opacity:1;" d="M 34.609375 15.414062 C 34.484375 15.792969 34.425781 15.980469 34.351562 16.179688 L 34.269531 16.402344 L 33.648438 16.402344 C 33.308594 16.402344 33.03125 16.425781 33.03125 16.453125 C 33.03125 16.492188 33.242188 16.675781 33.511719 16.871094 C 33.777344 17.070312 33.988281 17.261719 33.988281 17.308594 C 33.988281 17.359375 33.921875 17.589844 33.835938 17.828125 C 33.597656 18.503906 33.65625 18.554688 34.195312 18.152344 C 34.449219 17.96875 34.691406 17.8125 34.738281 17.8125 C 34.78125 17.8125 35.023438 17.96875 35.277344 18.152344 C 35.800781 18.554688 35.859375 18.503906 35.625 17.828125 C 35.535156 17.589844 35.46875 17.359375 35.46875 17.308594 C 35.46875 17.261719 35.683594 17.070312 35.949219 16.871094 C 36.214844 16.675781 36.429688 16.492188 36.429688 16.453125 C 36.429688 16.425781 36.171875 16.402344 35.84375 16.402344 C 35.171875 16.402344 35.15625 16.386719 34.957031 15.765625 C 34.816406 15.3125 34.683594 15.179688 34.609375 15.414062 Z M 34.609375 15.414062 "/>
<path style=" stroke:none;fill-rule:nonzero;fill:rgb(0%,0%,0%);fill-opacity:1;" d="M 30.207031 16.75 C 30.183594 16.78125 30.125 16.960938 30.074219 17.144531 C 29.941406 17.582031 29.828125 17.664062 29.355469 17.664062 C 29.144531 17.664062 28.964844 17.6875 28.964844 17.714844 C 28.972656 17.753906 29.136719 17.902344 29.328125 18.050781 L 29.691406 18.332031 L 29.578125 18.679688 C 29.394531 19.273438 29.386719 19.296875 29.445312 19.296875 C 29.476562 19.296875 29.667969 19.179688 29.859375 19.039062 C 30.058594 18.894531 30.25 18.777344 30.289062 18.777344 C 30.316406 18.777344 30.503906 18.894531 30.6875 19.039062 C 30.976562 19.257812 31.183594 19.355469 31.183594 19.273438 C 31.183594 19.265625 31.117188 19.074219 31.035156 18.851562 C 30.953125 18.628906 30.886719 18.414062 30.886719 18.367188 C 30.886719 18.332031 31.050781 18.175781 31.257812 18.035156 C 31.457031 17.894531 31.617188 17.753906 31.625 17.714844 C 31.625 17.6875 31.425781 17.664062 31.191406 17.664062 C 30.695312 17.664062 30.5625 17.554688 30.472656 17.09375 C 30.429688 16.855469 30.257812 16.640625 30.207031 16.75 Z M 30.207031 16.75 "/>
<path style=" stroke:none;fill-rule:nonzero;fill:rgb(0%,0%,0%);fill-opacity:1;" d="M 39.082031 16.898438 C 38.808594 17.613281 38.792969 17.625 38.296875 17.648438 C 38.039062 17.664062 37.832031 17.695312 37.832031 17.722656 C 37.832031 17.753906 38.003906 17.886719 38.203125 18.019531 C 38.410156 18.148438 38.570312 18.300781 38.570312 18.355469 C 38.570312 18.40625 38.503906 18.628906 38.421875 18.851562 C 38.246094 19.335938 38.253906 19.296875 38.371094 19.296875 C 38.417969 19.296875 38.609375 19.179688 38.785156 19.039062 C 38.964844 18.894531 39.140625 18.777344 39.171875 18.777344 C 39.207031 18.777344 39.40625 18.894531 39.605469 19.042969 C 39.8125 19.191406 39.996094 19.296875 40.019531 19.273438 C 40.058594 19.238281 39.976562 18.910156 39.820312 18.503906 C 39.769531 18.355469 39.8125 18.296875 40.175781 18.019531 L 40.597656 17.703125 L 40.109375 17.664062 C 39.835938 17.640625 39.589844 17.605469 39.5625 17.566406 C 39.480469 17.492188 39.308594 16.988281 39.308594 16.824219 C 39.308594 16.632812 39.171875 16.675781 39.082031 16.898438 Z M 39.082031 16.898438 "/>
<path style=" stroke:none;fill-rule:nonzero;fill:rgb(0%,0%,0%);fill-opacity:1;" d="M 23.097656 25.046875 C 22.847656 25.324219 22.757812 26.125 22.757812 28.128906 C 22.765625 30.644531 22.898438 31.179688 23.519531 31.195312 C 24.15625 31.207031 24.238281 30.851562 24.238281 28.054688 C 24.238281 25.820312 24.183594 25.285156 23.925781 25.011719 C 23.726562 24.796875 23.3125 24.8125 23.097656 25.046875 Z M 23.097656 25.046875 "/>
<path style=" stroke:none;fill-rule:nonzero;fill:rgb(0%,0%,0%);fill-opacity:1;" d="M 45.738281 24.863281 C 45.65625 24.945312 45.570312 25.101562 45.539062 25.210938 C 45.503906 25.332031 45.480469 26.636719 45.480469 28.128906 C 45.480469 30.59375 45.496094 30.859375 45.613281 31.082031 C 45.921875 31.652344 46.441406 31.519531 46.601562 30.832031 C 46.714844 30.347656 46.730469 25.910156 46.617188 25.367188 C 46.5 24.765625 46.078125 24.523438 45.738281 24.863281 Z M 45.738281 24.863281 "/>
<path style=" stroke:none;fill-rule:nonzero;fill:rgb(0%,0%,0%);fill-opacity:1;" d="M 51.503906 24.863281 C 51.421875 24.945312 51.332031 25.101562 51.304688 25.210938 C 51.265625 25.332031 51.242188 26.605469 51.242188 28.054688 C 51.242188 30.964844 51.28125 31.253906 51.644531 31.378906 C 51.855469 31.453125 52.09375 31.394531 52.210938 31.238281 C 52.398438 31 52.464844 30.191406 52.464844 28.105469 C 52.464844 25.777344 52.398438 25.054688 52.152344 24.839844 C 51.953125 24.671875 51.6875 24.679688 51.503906 24.863281 Z M 51.503906 24.863281 "/>
<path style=" stroke:none;fill-rule:nonzero;fill:rgb(0%,0%,0%);fill-opacity:1;" d="M 57.238281 24.894531 C 56.984375 25.136719 56.949219 25.6875 56.984375 28.535156 C 57.015625 31.066406 57.035156 31.222656 57.382812 31.386719 C 57.597656 31.484375 57.886719 31.386719 57.996094 31.195312 C 58.035156 31.121094 58.109375 30.785156 58.152344 30.453125 C 58.257812 29.722656 58.210938 25.648438 58.09375 25.195312 C 57.960938 24.699219 57.5625 24.558594 57.238281 24.894531 Z M 57.238281 24.894531 "/>
<path style=" stroke:none;fill-rule:nonzero;fill:rgb(0%,0%,0%);fill-opacity:1;" d="M 19.117188 38.503906 C 18.671875 38.75 18.230469 39.195312 18.050781 39.550781 C 17.984375 39.699219 17.910156 40.046875 17.898438 40.34375 C 17.867188 40.804688 17.898438 40.925781 18.066406 41.28125 C 18.339844 41.84375 18.796875 42.347656 19.21875 42.5625 C 19.5 42.710938 19.691406 42.75 20.121094 42.75 C 20.828125 42.75 20.925781 42.675781 20.828125 42.222656 L 20.757812 41.875 L 20.136719 41.890625 L 19.507812 41.898438 L 19.195312 41.578125 C 18.886719 41.273438 18.878906 41.25 18.878906 40.789062 C 18.878906 40.367188 18.910156 40.277344 19.109375 40.027344 C 19.832031 39.128906 20.769531 39.03125 21.382812 39.804688 C 21.5625 40.027344 21.605469 40.152344 21.605469 40.441406 C 21.605469 40.640625 21.5625 40.859375 21.511719 40.925781 C 21.429688 41.019531 21.449219 41.078125 21.613281 41.304688 C 21.722656 41.445312 21.84375 41.5625 21.878906 41.5625 C 22.011719 41.5625 22.890625 40.78125 22.898438 40.664062 C 22.90625 40.507812 22.597656 40.226562 22.410156 40.226562 C 22.292969 40.226562 22.25 40.167969 22.210938 39.972656 C 22.136719 39.574219 21.976562 39.304688 21.546875 38.90625 C 21.03125 38.414062 20.734375 38.296875 20.03125 38.304688 C 19.566406 38.304688 19.410156 38.339844 19.117188 38.503906 Z M 19.117188 38.503906 "/>
<path style=" stroke:none;fill-rule:nonzero;fill:rgb(0%,0%,0%);fill-opacity:1;" d="M 48.703125 38.414062 C 48.304688 38.59375 48.035156 38.832031 47.4375 39.527344 C 47.136719 39.886719 46.738281 40.34375 46.550781 40.546875 L 46.226562 40.910156 L 46.476562 41.117188 L 46.738281 41.332031 L 46.929688 41.148438 C 47.03125 41.050781 47.15625 40.96875 47.203125 40.96875 C 47.253906 40.96875 47.59375 41.226562 47.964844 41.539062 C 48.332031 41.859375 48.769531 42.230469 48.9375 42.363281 C 49.316406 42.660156 49.34375 42.765625 49.136719 43.023438 L 48.984375 43.226562 L 49.203125 43.449219 C 49.398438 43.632812 49.441406 43.65625 49.542969 43.566406 C 49.773438 43.375 51.242188 41.554688 51.390625 41.28125 C 51.597656 40.894531 51.636719 40.039062 51.464844 39.699219 C 51.15625 39.082031 50.625 38.601562 50.023438 38.394531 C 49.675781 38.265625 49.011719 38.28125 48.703125 38.414062 Z M 49.617188 39.402344 C 50.210938 39.691406 50.691406 40.285156 50.691406 40.746094 C 50.691406 41.011719 50.296875 41.75 50.113281 41.820312 C 49.980469 41.875 47.957031 40.1875 47.957031 40.027344 C 47.957031 39.9375 48.554688 39.367188 48.695312 39.3125 C 48.921875 39.230469 49.335938 39.269531 49.617188 39.402344 Z M 49.617188 39.402344 "/>
<path style=" stroke:none;fill-rule:nonzero;fill:rgb(0%,0%,0%);fill-opacity:1;" d="M 23.046875 41.207031 L 22.875 41.4375 L 23.039062 41.546875 C 23.128906 41.605469 23.203125 41.710938 23.203125 41.777344 C 23.203125 41.84375 23.023438 42.132812 22.808594 42.421875 C 22.601562 42.710938 22.261719 43.1875 22.058594 43.476562 C 21.6875 44.011719 21.523438 44.109375 21.355469 43.898438 C 21.304688 43.839844 21.242188 43.789062 21.214844 43.789062 C 21.171875 43.789062 20.835938 44.273438 20.835938 44.339844 C 20.835938 44.359375 22.242188 45.398438 22.714844 45.71875 C 22.796875 45.777344 23.0625 45.964844 23.296875 46.140625 C 23.527344 46.320312 23.761719 46.460938 23.816406 46.453125 C 23.859375 46.453125 24.050781 46.230469 24.230469 45.964844 L 24.554688 45.464844 L 24.316406 45.257812 C 24.035156 45.007812 23.984375 45 23.777344 45.234375 C 23.691406 45.339844 23.585938 45.421875 23.550781 45.421875 C 23.488281 45.421875 23.046875 45.125 22.691406 44.835938 L 22.507812 44.695312 L 22.796875 44.273438 C 22.957031 44.042969 23.113281 43.832031 23.144531 43.820312 C 23.171875 43.796875 23.386719 43.921875 23.617188 44.085938 C 23.835938 44.257812 24.035156 44.382812 24.042969 44.367188 C 24.207031 44.144531 24.382812 43.871094 24.382812 43.839844 C 24.382812 43.820312 24.222656 43.683594 24.015625 43.535156 C 23.816406 43.386719 23.644531 43.234375 23.644531 43.1875 C 23.644531 43.070312 24.082031 42.453125 24.171875 42.453125 C 24.289062 42.453125 25.128906 43.046875 25.175781 43.164062 C 25.195312 43.226562 25.160156 43.335938 25.09375 43.410156 C 24.917969 43.609375 24.945312 43.738281 25.242188 43.9375 L 25.507812 44.117188 L 25.683594 43.898438 C 26.0625 43.425781 26.230469 43.144531 26.195312 43.039062 C 26.171875 42.980469 25.957031 42.808594 25.730469 42.652344 C 25.5 42.492188 25.058594 42.1875 24.753906 41.964844 C 23.75 41.234375 23.355469 40.96875 23.285156 40.96875 C 23.246094 40.96875 23.136719 41.074219 23.046875 41.207031 Z M 23.046875 41.207031 "/>
<path style=" stroke:none;fill-rule:nonzero;fill:rgb(0%,0%,0%);fill-opacity:1;" d="M 44.882812 41.84375 C 44.269531 42.28125 43.609375 42.75 43.417969 42.882812 L 43.070312 43.121094 L 43.203125 43.351562 C 43.359375 43.617188 43.5 43.691406 43.617188 43.574219 C 43.773438 43.417969 43.941406 43.492188 44.148438 43.804688 C 44.269531 43.980469 44.601562 44.464844 44.902344 44.878906 C 45.199219 45.296875 45.441406 45.675781 45.441406 45.726562 C 45.441406 45.769531 45.371094 45.867188 45.28125 45.941406 L 45.109375 46.074219 L 45.265625 46.289062 C 45.355469 46.402344 45.464844 46.503906 45.523438 46.519531 C 45.582031 46.527344 45.796875 46.410156 46.003906 46.261719 C 46.449219 45.933594 47.097656 45.464844 47.898438 44.902344 C 48.214844 44.679688 48.472656 44.464844 48.472656 44.433594 C 48.472656 44.375 48.101562 43.8125 47.898438 43.550781 C 47.792969 43.433594 47.769531 43.433594 47.503906 43.566406 C 47.136719 43.757812 47.105469 43.828125 47.285156 44.054688 C 47.371094 44.167969 47.4375 44.277344 47.4375 44.316406 C 47.4375 44.40625 46.542969 45.050781 46.417969 45.050781 C 46.292969 45.050781 45.8125 44.382812 45.8125 44.21875 C 45.8125 44.167969 45.921875 44.046875 46.058594 43.953125 C 46.597656 43.574219 46.574219 43.601562 46.449219 43.359375 C 46.382812 43.234375 46.300781 43.113281 46.257812 43.085938 C 46.21875 43.0625 46.011719 43.15625 45.796875 43.304688 C 45.582031 43.449219 45.375 43.566406 45.332031 43.566406 C 45.238281 43.566406 44.761719 42.839844 44.808594 42.757812 C 44.875 42.652344 45.738281 42.082031 45.84375 42.082031 C 45.894531 42.082031 45.984375 42.164062 46.035156 42.265625 C 46.085938 42.371094 46.183594 42.453125 46.25 42.453125 C 46.382812 42.445312 46.773438 42.125 46.773438 42.023438 C 46.773438 41.925781 46.125 41.042969 46.058594 41.042969 C 46.019531 41.042969 45.496094 41.40625 44.882812 41.84375 Z M 44.882812 41.84375 "/>
<path style=" stroke:none;fill-rule:nonzero;fill:rgb(0%,0%,0%);fill-opacity:1;" d="M 26.335938 43.460938 C 26.214844 43.746094 26.285156 43.9375 26.503906 43.9375 C 26.558594 43.9375 26.625 43.980469 26.644531 44.042969 C 26.683594 44.144531 25.742188 46.578125 25.640625 46.648438 C 25.601562 46.667969 25.484375 46.648438 25.375 46.609375 C 25.136719 46.511719 25.011719 46.601562 24.9375 46.914062 C 24.894531 47.085938 24.921875 47.128906 25.128906 47.234375 C 25.261719 47.300781 25.398438 47.351562 25.433594 47.351562 C 25.464844 47.351562 25.65625 47.417969 25.847656 47.507812 C 26.039062 47.597656 26.277344 47.699219 26.378906 47.738281 C 26.484375 47.78125 26.625 47.847656 26.695312 47.886719 C 26.851562 47.96875 26.84375 47.96875 26.964844 47.746094 C 27.101562 47.476562 27.058594 47.277344 26.851562 47.203125 C 26.71875 47.152344 26.667969 47.085938 26.695312 46.996094 C 26.808594 46.652344 26.949219 46.320312 27.050781 46.164062 C 27.15625 46.007812 27.175781 46 27.339844 46.097656 C 27.597656 46.246094 27.636719 46.304688 27.636719 46.675781 C 27.636719 46.863281 27.671875 47.308594 27.714844 47.671875 C 27.785156 48.160156 27.835938 48.339844 27.921875 48.367188 C 27.988281 48.390625 28.144531 48.449219 28.261719 48.5 C 28.847656 48.761719 28.875 48.769531 29.003906 48.589844 C 29.171875 48.347656 29.136719 48.144531 28.898438 48.011719 C 28.707031 47.902344 28.683594 47.839844 28.609375 47.242188 C 28.558594 46.882812 28.542969 46.566406 28.566406 46.527344 C 28.582031 46.492188 28.738281 46.421875 28.898438 46.378906 C 29.4375 46.214844 29.777344 45.652344 29.675781 45.085938 C 29.585938 44.605469 29.195312 44.292969 28.191406 43.898438 C 27.238281 43.53125 26.859375 43.375 26.660156 43.261719 C 26.46875 43.164062 26.453125 43.171875 26.335938 43.460938 Z M 28.277344 44.679688 C 28.550781 44.84375 28.65625 45.125 28.535156 45.382812 C 28.433594 45.613281 28.144531 45.6875 27.796875 45.578125 C 27.308594 45.429688 27.296875 45.40625 27.472656 45.019531 C 27.5625 44.835938 27.636719 44.648438 27.636719 44.605469 C 27.636719 44.480469 28.027344 44.523438 28.277344 44.679688 Z M 28.277344 44.679688 "/>
<path style=" stroke:none;fill-rule:nonzero;fill:rgb(0%,0%,0%);fill-opacity:1;" d="M 42.636719 43.277344 C 42.578125 43.3125 42.230469 43.476562 41.859375 43.648438 C 41.496094 43.8125 41.082031 43.996094 40.957031 44.054688 C 40.824219 44.117188 40.714844 44.191406 40.714844 44.226562 C 40.714844 44.257812 40.441406 44.339844 40.109375 44.414062 C 39.769531 44.488281 39.265625 44.605469 38.976562 44.679688 C 38.695312 44.753906 38.128906 44.886719 37.722656 44.984375 C 37.316406 45.074219 36.976562 45.15625 36.960938 45.167969 C 36.945312 45.175781 36.976562 45.316406 37.027344 45.480469 C 37.109375 45.769531 37.125 45.777344 37.410156 45.769531 C 37.683594 45.757812 37.714844 45.769531 37.765625 45.976562 C 37.996094 46.855469 38.277344 48.09375 38.289062 48.273438 C 38.3125 48.464844 38.285156 48.496094 38.078125 48.554688 C 37.875 48.605469 37.832031 48.648438 37.832031 48.820312 C 37.832031 48.941406 37.875 49.089844 37.929688 49.15625 C 38.011719 49.265625 38.054688 49.265625 38.535156 49.140625 C 38.824219 49.066406 39.265625 48.953125 39.523438 48.902344 C 40.167969 48.761719 40.21875 48.71875 40.109375 48.367188 C 40.011719 48.0625 40.003906 48.054688 39.710938 48.167969 C 39.597656 48.210938 39.480469 48.21875 39.441406 48.183594 C 39.363281 48.101562 39.148438 47.269531 39.183594 47.171875 C 39.207031 47.128906 39.375 47.046875 39.578125 46.988281 C 39.777344 46.929688 39.960938 46.875 39.984375 46.863281 C 40.050781 46.824219 39.851562 46.273438 39.777344 46.28125 C 39.746094 46.289062 39.546875 46.320312 39.332031 46.351562 C 38.957031 46.402344 38.949219 46.394531 38.902344 46.1875 C 38.882812 46.074219 38.828125 45.867188 38.792969 45.734375 C 38.71875 45.460938 38.800781 45.382812 39.324219 45.273438 C 39.503906 45.242188 39.714844 45.183594 39.804688 45.164062 C 39.945312 45.117188 39.988281 45.15625 40.09375 45.414062 C 40.191406 45.652344 40.242188 45.710938 40.335938 45.675781 C 40.402344 45.644531 40.542969 45.609375 40.664062 45.585938 C 40.898438 45.546875 40.90625 45.472656 40.75 44.871094 C 40.640625 44.441406 40.664062 44.234375 40.789062 44.457031 C 40.972656 44.753906 40.980469 44.761719 41.1875 44.679688 C 41.511719 44.554688 41.578125 44.589844 41.734375 44.960938 C 41.898438 45.339844 42.332031 46.304688 42.5625 46.796875 C 42.703125 47.09375 42.703125 47.09375 42.546875 47.21875 C 42.464844 47.292969 42.355469 47.351562 42.296875 47.351562 C 42.238281 47.351562 42.191406 47.402344 42.191406 47.460938 C 42.191406 47.582031 42.390625 48.019531 42.449219 48.019531 C 42.464844 48.019531 42.714844 47.90625 43.019531 47.773438 C 43.316406 47.632812 43.765625 47.425781 44.023438 47.3125 C 44.503906 47.09375 44.570312 46.988281 44.394531 46.660156 C 44.34375 46.570312 44.296875 46.492188 44.289062 46.476562 C 44.289062 46.46875 44.164062 46.511719 44.015625 46.570312 C 43.871094 46.632812 43.730469 46.683594 43.714844 46.683594 C 43.675781 46.683594 43.589844 46.503906 43.261719 45.757812 C 43.203125 45.628906 43.027344 45.234375 42.863281 44.878906 C 42.695312 44.515625 42.5625 44.191406 42.5625 44.160156 C 42.5625 44.128906 42.679688 44.035156 42.820312 43.945312 L 43.078125 43.789062 L 42.96875 43.523438 C 42.910156 43.375 42.855469 43.238281 42.855469 43.226562 C 42.855469 43.171875 42.753906 43.203125 42.636719 43.277344 Z M 42.636719 43.277344 "/>
<path style=" stroke:none;fill-rule:nonzero;fill:rgb(0%,0%,0%);fill-opacity:1;" d="M 30.441406 44.828125 C 30.371094 44.871094 30.214844 45.75 30.191406 46.238281 C 30.183594 46.410156 30.207031 46.421875 30.515625 46.421875 C 30.84375 46.421875 30.851562 46.417969 30.871094 46.164062 C 30.910156 45.609375 30.9375 45.570312 31.261719 45.570312 C 31.625 45.570312 31.664062 45.652344 31.566406 46.261719 C 31.523438 46.511719 31.449219 47.003906 31.402344 47.351562 C 31.261719 48.429688 31.257812 48.429688 30.910156 48.40625 C 30.621094 48.390625 30.605469 48.398438 30.570312 48.664062 C 30.539062 48.820312 30.554688 48.976562 30.589844 49.015625 C 30.628906 49.050781 30.855469 49.109375 31.085938 49.140625 C 31.324219 49.171875 31.796875 49.238281 32.136719 49.28125 C 32.476562 49.324219 32.761719 49.347656 32.785156 49.324219 C 32.808594 49.3125 32.835938 49.164062 32.859375 49 L 32.898438 48.695312 L 32.617188 48.671875 C 32.335938 48.648438 32.328125 48.644531 32.34375 48.390625 C 32.363281 48.054688 32.503906 47.015625 32.617188 46.351562 L 32.710938 45.828125 L 32.992188 45.84375 C 33.390625 45.875 33.429688 45.933594 33.332031 46.394531 C 33.28125 46.625 33.273438 46.808594 33.308594 46.847656 C 33.347656 46.882812 33.511719 46.90625 33.664062 46.890625 L 33.953125 46.867188 L 33.996094 46.460938 C 34.027344 46.238281 34.070312 45.882812 34.101562 45.675781 L 34.152344 45.296875 L 33.761719 45.25 C 33.539062 45.222656 33.148438 45.167969 32.882812 45.125 C 32.617188 45.085938 32.171875 45.015625 31.882812 44.976562 C 31.601562 44.933594 31.175781 44.871094 30.945312 44.84375 C 30.710938 44.804688 30.488281 44.804688 30.441406 44.828125 Z M 30.441406 44.828125 "/>
<path style=" stroke:none;fill-rule:nonzero;fill:rgb(0%,0%,0%);fill-opacity:1;" d="M 35.800781 45.175781 C 35.636719 45.183594 35.261719 45.214844 34.972656 45.242188 L 34.433594 45.289062 L 34.433594 45.578125 C 34.433594 45.859375 34.441406 45.867188 34.691406 45.867188 C 34.863281 45.867188 34.964844 45.910156 35.015625 46.007812 C 35.0625 46.082031 35.105469 46.726562 35.113281 47.433594 L 35.136719 48.726562 L 34.863281 48.792969 C 34.597656 48.859375 34.582031 48.878906 34.582031 49.148438 L 34.582031 49.429688 L 35.421875 49.429688 C 35.882812 49.429688 36.414062 49.40625 36.605469 49.386719 L 36.953125 49.332031 L 36.929688 49.027344 C 36.910156 48.726562 36.910156 48.726562 36.589844 48.703125 C 36.414062 48.6875 36.257812 48.636719 36.242188 48.589844 C 36.230469 48.539062 36.199219 47.90625 36.175781 47.1875 L 36.125 45.875 L 36.441406 45.816406 C 36.730469 45.757812 36.761719 45.726562 36.746094 45.53125 C 36.714844 45.101562 36.710938 45.101562 35.800781 45.175781 Z M 35.800781 45.175781 "/>
<path style=" stroke:none;fill-rule:nonzero;fill:rgb(0%,0%,0%);fill-opacity:1;" d="M 29.445312 36.828125 C 29.476562 36.921875 29.535156 37.148438 29.578125 37.324219 C 29.660156 37.644531 29.652344 37.660156 29.445312 37.808594 C 29.335938 37.894531 29.148438 38.039062 29.046875 38.125 L 28.855469 38.289062 L 29.351562 38.296875 C 29.660156 38.296875 29.867188 38.335938 29.902344 38.386719 C 30 38.542969 30.148438 38.988281 30.148438 39.136719 C 30.148438 39.394531 30.332031 39.210938 30.472656 38.808594 C 30.546875 38.585938 30.648438 38.386719 30.695312 38.355469 C 30.738281 38.328125 30.96875 38.296875 31.203125 38.296875 C 31.671875 38.296875 31.722656 38.238281 31.425781 38.058594 C 31.308594 37.992188 31.144531 37.859375 31.050781 37.753906 C 30.863281 37.5625 30.871094 37.488281 31.144531 36.789062 C 31.226562 36.582031 31.027344 36.640625 30.671875 36.921875 C 30.496094 37.066406 30.324219 37.183594 30.304688 37.183594 C 30.28125 37.183594 30.082031 37.066406 29.875 36.921875 C 29.421875 36.621094 29.371094 36.613281 29.445312 36.828125 Z M 29.445312 36.828125 "/>
<path style=" stroke:none;fill-rule:nonzero;fill:rgb(0%,0%,0%);fill-opacity:1;" d="M 38.3125 36.789062 C 38.585938 37.488281 38.59375 37.5625 38.410156 37.753906 C 38.3125 37.859375 38.148438 37.992188 38.039062 38.058594 C 37.738281 38.238281 37.789062 38.296875 38.261719 38.296875 C 38.488281 38.296875 38.71875 38.328125 38.761719 38.355469 C 38.808594 38.386719 38.910156 38.585938 38.984375 38.808594 C 39.125 39.210938 39.308594 39.394531 39.308594 39.136719 C 39.308594 38.988281 39.457031 38.542969 39.554688 38.386719 C 39.589844 38.335938 39.789062 38.296875 40.09375 38.296875 C 40.351562 38.296875 40.566406 38.273438 40.566406 38.238281 C 40.566406 38.207031 40.417969 38.089844 40.242188 37.976562 C 39.761719 37.671875 39.753906 37.652344 39.917969 37.152344 C 39.988281 36.917969 40.042969 36.703125 40.019531 36.6875 C 39.996094 36.664062 39.8125 36.769531 39.605469 36.917969 C 39.40625 37.066406 39.207031 37.183594 39.171875 37.183594 C 39.140625 37.183594 38.964844 37.066406 38.785156 36.921875 C 38.429688 36.640625 38.230469 36.582031 38.3125 36.789062 Z M 38.3125 36.789062 "/>
<path style=" stroke:none;fill-rule:nonzero;fill:rgb(0%,0%,0%);fill-opacity:1;" d="M 33.695312 37.613281 C 33.695312 37.679688 33.761719 37.925781 33.84375 38.148438 C 33.921875 38.371094 33.988281 38.59375 33.988281 38.644531 C 33.988281 38.691406 33.769531 38.890625 33.503906 39.089844 L 33.015625 39.445312 L 33.613281 39.492188 C 33.945312 39.523438 34.242188 39.558594 34.269531 39.589844 C 34.300781 39.617188 34.390625 39.863281 34.476562 40.136719 C 34.566406 40.414062 34.675781 40.632812 34.722656 40.632812 C 34.773438 40.632812 34.890625 40.40625 34.988281 40.128906 C 35.078125 39.855469 35.179688 39.601562 35.203125 39.574219 C 35.230469 39.542969 35.476562 39.523438 35.75 39.515625 C 36.578125 39.507812 36.582031 39.5 35.941406 39.070312 C 35.710938 38.914062 35.511719 38.75 35.488281 38.699219 C 35.476562 38.644531 35.527344 38.40625 35.609375 38.164062 C 35.695312 37.925781 35.761719 37.671875 35.761719 37.605469 C 35.761719 37.472656 35.652344 37.4375 35.585938 37.546875 C 35.5625 37.585938 35.355469 37.734375 35.136719 37.890625 L 34.730469 38.15625 L 34.324219 37.890625 C 34.101562 37.734375 33.894531 37.585938 33.871094 37.546875 C 33.804688 37.4375 33.695312 37.472656 33.695312 37.613281 Z M 33.695312 37.613281 "/>
</g>
</svg>
