<svg width="16" height="16" viewBox="0 0 16 16" fill="none" xmlns="http://www.w3.org/2000/svg">
<rect width="16" height="16" rx="8" fill="white"/>
<path fill-rule="evenodd" clip-rule="evenodd" d="M14.0066 9.14892C13.8275 8.86767 13.0983 8.76188 12.8907 8.78898C13.0736 8.53095 13.0944 8.08197 12.9958 7.7904C12.879 7.4511 12.6623 7.39562 12.6364 7.74396C12.5883 8.39934 11.9875 8.80962 11.2583 8.73608C11.0429 8.72185 10.8387 8.63535 10.6791 8.49076C10.5196 8.34617 10.414 8.15201 10.3799 7.94005C10.315 7.56592 10.4097 7.18791 10.8353 7.08341C11.1818 6.99955 11.414 7.19049 11.4283 7.42658C11.4504 7.79556 11.1324 7.6601 11.0844 7.89619C11.0764 7.93541 11.0769 7.9759 11.0859 8.01492C11.0949 8.05394 11.1122 8.09058 11.1367 8.12238C11.1612 8.15418 11.1922 8.18038 11.2278 8.19921C11.2633 8.21807 11.3025 8.22912 11.3427 8.23162C12.0174 8.25614 12.2107 7.63688 12.1212 7.21758C12.0723 6.94638 11.928 6.70132 11.714 6.52618C11.5001 6.35104 11.2305 6.25726 10.9534 6.26158C10.2164 6.24481 9.51307 6.73895 9.51307 7.7388C9.50856 8.0223 9.57937 8.30196 9.71835 8.54955C9.85731 8.79715 10.0596 9.00389 10.3046 9.14892C10.0569 9.29211 9.85199 9.49811 9.71064 9.74585C9.5693 9.99362 9.49664 10.2742 9.50009 10.559C9.50009 11.5589 10.2034 12.053 10.9404 12.0363C11.2175 12.0406 11.4871 11.9468 11.701 11.7717C11.915 11.5965 12.0593 11.3515 12.1082 11.0803C12.1952 10.661 12.0018 10.0481 11.3297 10.0662C11.2895 10.0686 11.2503 10.0795 11.2148 10.0982C11.1792 10.1169 11.148 10.1429 11.1235 10.1746C11.0989 10.2062 11.0814 10.2428 11.0722 10.2817C11.063 10.3207 11.0623 10.3611 11.0702 10.4004C11.1182 10.639 11.4361 10.501 11.414 10.8725C11.3997 11.1061 11.1675 11.2983 10.821 11.2157C10.3954 11.1099 10.302 10.7306 10.3656 10.3578C10.4 10.1459 10.5056 9.95189 10.6651 9.80734C10.8246 9.66279 11.0287 9.57623 11.244 9.56176C11.9824 9.48822 12.5883 9.89848 12.6402 10.5539C12.6662 10.9022 12.8829 10.8467 12.9997 10.5074C13.0983 10.2159 13.0775 9.76431 12.8946 9.50758C13.0983 9.54241 13.8314 9.43146 14.0105 9.14892" fill="#FF0000"/>
<path fill-rule="evenodd" clip-rule="evenodd" d="M8.14673 12.9316H10.2761V12.5601C10.2761 12.5601 8.8604 12.4891 8.79292 11.0519V10.4675C8.8007 10.123 9.05243 9.21474 9.77648 9.14895C9.19258 9.03671 8.77605 8.42904 8.79162 7.83042C8.79162 7.83042 8.79162 7.68335 8.79162 7.17504C8.82535 5.51849 10.7094 5.53269 10.8055 5.53269H10.8392C12.4612 5.53269 12.6312 6.82283 12.6312 6.90024H12.9893L12.8595 4.49412L12.8232 4H12.5767C12.5767 4 12.4469 4.42316 11.4997 4.42316H4.47197C3.52344 4.42704 3.39368 4 3.39368 4H3.14973L3.10951 4.4967L2.97975 6.90024H3.33788C3.33788 6.81896 3.50917 5.53269 5.12855 5.53269H5.16488C5.2596 5.53269 7.14368 5.51849 7.17614 7.17504C7.17614 7.68335 7.17614 7.83042 7.17614 7.83042C7.1904 8.42904 6.77259 9.03155 6.18868 9.14895C6.91143 9.21474 7.16446 10.123 7.17354 10.4675V11.0519C7.10736 12.4891 5.69429 12.5614 5.69429 12.5614V12.9316H8.14673Z" fill="#FF0000"/>
<path fill-rule="evenodd" clip-rule="evenodd" d="M2 9.14893C2.17907 8.86766 2.90831 8.76187 3.11462 8.78897C2.93426 8.53094 2.9109 8.08198 3.01211 7.79041C3.1289 7.45111 3.34429 7.39563 3.36895 7.74396C3.41826 8.39935 4.01775 8.80961 4.74827 8.73607C4.96379 8.72247 5.16816 8.63619 5.32766 8.49144C5.48716 8.34671 5.59221 8.1522 5.62545 7.94006C5.69162 7.56593 5.5969 7.18663 5.17129 7.0834C4.82484 6.99954 4.59257 7.1905 4.57959 7.42659C4.55624 7.79557 4.87285 7.66011 4.92346 7.8962C4.9313 7.9355 4.9306 7.97603 4.92142 8.01503C4.91224 8.05405 4.89477 8.09067 4.8702 8.12243C4.84564 8.15418 4.81452 8.18036 4.77894 8.1992C4.74336 8.21804 4.70417 8.22909 4.66394 8.23163C3.9905 8.25614 3.79845 7.63688 3.88539 7.21759C3.93404 6.94615 4.07825 6.70077 4.29221 6.52537C4.50618 6.35 4.77593 6.25603 5.0532 6.2603C5.79154 6.24482 6.49353 6.73894 6.49353 7.7388C6.49672 8.02356 6.42394 8.30408 6.28263 8.55178C6.14131 8.79949 5.93648 9.00553 5.68903 9.14893C5.93666 9.29211 6.14163 9.49812 6.28298 9.74586C6.42432 9.9936 6.49698 10.2742 6.49353 10.559C6.49353 11.5589 5.79154 12.053 5.0532 12.0362C4.77613 12.0406 4.50652 11.9468 4.29258 11.7717C4.07865 11.5965 3.93431 11.3515 3.88539 11.0803C3.79975 10.661 3.9905 10.0481 4.66394 10.0649C4.70401 10.0679 4.74299 10.0792 4.77835 10.0981C4.81372 10.1171 4.84465 10.1433 4.86915 10.1749C4.89364 10.2066 4.91115 10.243 4.92051 10.2819C4.92987 10.3207 4.93086 10.3611 4.92346 10.4004C4.87154 10.6377 4.55493 10.501 4.57569 10.8726C4.59126 11.1061 4.82354 11.2983 5.17129 11.2157C5.59559 11.1099 5.69033 10.7306 5.62415 10.3578C5.59023 10.1459 5.48499 9.9518 5.32563 9.80719C5.16626 9.66258 4.96226 9.57606 4.74698 9.56177C4.02293 9.48823 3.41696 9.8972 3.36765 10.5539C3.343 10.9035 3.1276 10.8468 3.00952 10.5074C2.90961 10.2159 2.93166 9.76432 3.11332 9.50887C2.90831 9.54758 2.17907 9.43147 2 9.14893Z" fill="#FF0000"/>
</svg>
