<?xml version="1.0" encoding="UTF-8"?>
<svg xmlns="http://www.w3.org/2000/svg" xmlns:xlink="http://www.w3.org/1999/xlink" width="100px" height="100px" viewBox="0 0 100 100" version="1.1">
<g id="surface1">
<path style=" stroke:none;fill-rule:nonzero;fill:rgb(0%,0%,0%);fill-opacity:1;" d="M 48.175781 20.785156 C 48.046875 20.796875 47.585938 20.84375 47.164062 20.886719 C 41.59375 21.398438 36.128906 23.628906 31.703125 27.1875 C 27.3125 30.714844 24.074219 35.359375 22.25 40.722656 L 21.925781 41.6875 L 18.445312 41.6875 L 18.445312 57.5 L 20.082031 57.511719 L 21.714844 57.535156 L 21.777344 57.769531 C 21.972656 58.5 22.675781 60.507812 23.039062 61.351562 C 24.863281 65.621094 27.472656 69.183594 31.011719 72.238281 C 34.898438 75.59375 39.886719 77.945312 44.953125 78.816406 C 46.859375 79.140625 47.738281 79.214844 49.898438 79.214844 C 51.890625 79.222656 52.722656 79.167969 54.257812 78.945312 C 62.3125 77.769531 69.609375 73.195312 74.183594 66.453125 C 76.007812 63.757812 77.214844 61.15625 78.238281 57.703125 L 78.289062 57.535156 L 79.917969 57.511719 L 81.554688 57.5 L 81.554688 41.6875 L 78.066406 41.6875 L 77.8125 40.890625 C 76.980469 38.351562 75.738281 35.84375 74.175781 33.539062 C 70 27.378906 63.417969 22.9375 56.148438 21.390625 C 54.121094 20.960938 52.667969 20.804688 50.335938 20.777344 C 49.277344 20.761719 48.304688 20.769531 48.175781 20.785156 Z M 52.988281 21.511719 C 58.519531 22.121094 63.566406 24.203125 67.890625 27.664062 C 71.601562 30.621094 74.6875 34.730469 76.464844 39.054688 C 76.785156 39.824219 77.363281 41.472656 77.363281 41.59375 C 77.363281 41.667969 77.257812 41.6875 76.898438 41.6875 C 76.445312 41.6875 76.433594 41.683594 76.386719 41.5 C 76.238281 40.90625 75.433594 38.925781 74.898438 37.84375 C 73.75 35.527344 72.546875 33.703125 70.917969 31.824219 C 64.59375 24.535156 54.972656 21.085938 45.390625 22.667969 C 40.289062 23.511719 35.445312 25.84375 31.527344 29.351562 C 28.007812 32.5 25.285156 36.601562 23.761719 41.054688 L 23.546875 41.6875 L 23.09375 41.6875 C 22.835938 41.6875 22.636719 41.664062 22.636719 41.628906 C 22.636719 41.472656 23.019531 40.363281 23.414062 39.398438 C 24.5 36.683594 25.863281 34.359375 27.738281 32.027344 C 28.335938 31.277344 29.3125 30.183594 29.75 29.761719 C 32.1875 27.425781 34.3125 25.886719 36.960938 24.511719 C 40.1875 22.851562 43.789062 21.804688 47.363281 21.492188 C 47.832031 21.453125 48.332031 21.40625 48.480469 21.390625 C 49.0625 21.332031 52.109375 21.417969 52.988281 21.511719 Z M 52.972656 24.960938 C 54.613281 25.175781 55.683594 25.398438 57.128906 25.824219 C 61.148438 27.011719 64.722656 29.136719 67.730469 32.121094 C 69.164062 33.546875 70.039062 34.621094 71.109375 36.25 C 72.128906 37.804688 73.351562 40.25 73.742188 41.535156 L 73.789062 41.6875 L 63.789062 41.6875 L 63.460938 41.195312 C 61.75 38.675781 59.472656 36.695312 56.871094 35.472656 C 54.609375 34.414062 52.5625 33.960938 50 33.960938 C 48.351562 33.960938 47.480469 34.0625 46.039062 34.425781 C 42.148438 35.417969 38.953125 37.695312 36.539062 41.214844 L 36.238281 41.65625 L 31.230469 41.675781 C 28.472656 41.683594 26.214844 41.667969 26.214844 41.648438 C 26.214844 41.488281 27.019531 39.621094 27.5 38.683594 C 29.972656 33.796875 33.804688 29.964844 38.710938 27.472656 C 41.601562 26 44.546875 25.1875 48.277344 24.835938 C 48.925781 24.777344 52.242188 24.859375 52.972656 24.960938 Z M 52.363281 35.164062 C 56.261719 35.832031 59.628906 37.871094 62 41.007812 C 62.238281 41.316406 62.433594 41.601562 62.433594 41.636719 C 62.433594 41.664062 56.835938 41.6875 50 41.6875 C 43.164062 41.6875 37.566406 41.667969 37.566406 41.636719 C 37.566406 41.492188 38.5625 40.277344 39.25 39.566406 C 40.128906 38.667969 40.804688 38.109375 41.777344 37.460938 C 42.460938 37 43.824219 36.289062 44.609375 35.988281 C 45.640625 35.582031 47.335938 35.175781 48.546875 35.046875 C 49.164062 34.980469 51.738281 35.0625 52.363281 35.164062 Z M 38.886719 44.980469 C 40.074219 45.351562 40.953125 46.460938 41.371094 48.09375 C 41.5 48.601562 41.511719 48.859375 41.511719 50 C 41.507812 51.203125 41.492188 51.378906 41.332031 51.972656 C 40.710938 54.296875 39.0625 55.492188 37.101562 55.035156 C 36.519531 54.890625 36.082031 54.640625 35.636719 54.195312 C 34.65625 53.210938 34.230469 51.925781 34.238281 49.933594 C 34.242188 48.609375 34.386719 47.84375 34.8125 46.945312 C 35.621094 45.238281 37.222656 44.460938 38.886719 44.980469 Z M 30.386719 44.9375 C 30.695312 44.992188 30.933594 45.085938 31.203125 45.277344 L 31.585938 45.535156 L 31.609375 45.261719 L 31.628906 45 L 33.242188 45 L 33.242188 48.046875 L 32.453125 48.027344 L 31.65625 48.007812 L 31.609375 47.582031 C 31.539062 46.953125 31.4375 46.695312 31.1875 46.546875 C 30.75 46.277344 30.222656 46.453125 30.066406 46.917969 C 29.90625 47.425781 30.183594 47.90625 31.09375 48.664062 C 32.4375 49.777344 33.019531 50.445312 33.324219 51.210938 C 33.445312 51.519531 33.472656 51.730469 33.472656 52.363281 C 33.480469 53.101562 33.464844 53.164062 33.269531 53.582031 C 32.972656 54.195312 32.640625 54.546875 32.113281 54.8125 C 31.730469 55 31.609375 55.027344 31.121094 55.027344 C 30.535156 55.027344 30.128906 54.898438 29.6875 54.5625 L 29.464844 54.390625 L 29.445312 54.675781 L 29.425781 54.964844 L 28.636719 54.988281 L 27.835938 55.007812 L 27.835938 51.683594 L 28.636719 51.703125 L 29.425781 51.722656 L 29.464844 52.203125 C 29.554688 53.136719 29.757812 53.4375 30.332031 53.5 C 30.648438 53.527344 30.6875 53.511719 30.914062 53.289062 C 31.136719 53.066406 31.148438 53.027344 31.148438 52.628906 C 31.148438 52.011719 30.980469 51.714844 30.210938 50.988281 C 28.695312 49.554688 28.335938 49.164062 28.09375 48.667969 C 27.511719 47.507812 27.628906 46.363281 28.40625 45.554688 C 28.730469 45.210938 28.964844 45.074219 29.425781 44.960938 C 29.863281 44.851562 29.878906 44.851562 30.386719 44.9375 Z M 50.351562 44.9375 C 51.167969 45.113281 51.878906 45.664062 52.203125 46.371094 C 52.359375 46.714844 52.398438 46.914062 52.417969 47.445312 C 52.472656 48.621094 52.085938 49.445312 51.027344 50.4375 C 49.886719 51.5 49.128906 52.285156 49 52.546875 C 48.859375 52.816406 48.710938 53.480469 48.769531 53.546875 C 48.789062 53.566406 49.269531 53.582031 49.84375 53.582031 L 50.878906 53.582031 L 50.878906 52.027344 L 52.5 52.027344 L 52.5 55 L 49.75 54.988281 L 46.992188 54.964844 L 47.007812 54.289062 C 47.027344 52.871094 47.480469 51.804688 48.648438 50.4375 C 49.566406 49.371094 49.84375 48.953125 50.011719 48.433594 C 50.164062 47.9375 50.175781 47.054688 50.039062 46.722656 C 49.796875 46.15625 49.027344 46.25 48.851562 46.878906 C 48.816406 47.011719 48.785156 47.378906 48.785156 47.6875 L 48.785156 48.242188 L 48.195312 48.210938 C 47.863281 48.1875 47.4375 48.15625 47.242188 48.136719 L 46.878906 48.09375 L 46.925781 47.480469 C 47.007812 46.433594 47.332031 45.804688 48.039062 45.324219 C 48.648438 44.90625 49.511719 44.761719 50.351562 44.9375 Z M 56.566406 44.9375 C 57.398438 45.113281 58.085938 45.65625 58.433594 46.40625 C 58.574219 46.714844 58.613281 46.917969 58.636719 47.445312 C 58.6875 48.628906 58.324219 49.398438 57.257812 50.414062 C 55.34375 52.214844 55.066406 52.566406 54.980469 53.289062 L 54.945312 53.582031 L 57.09375 53.582031 L 57.09375 52.027344 L 58.714844 52.027344 L 58.714844 55 L 53.175781 55 L 53.175781 54.601562 C 53.175781 53.601562 53.480469 52.4375 53.945312 51.640625 C 54.074219 51.425781 54.488281 50.886719 54.863281 50.4375 C 56.109375 48.980469 56.351562 48.5 56.351562 47.492188 C 56.351562 46.667969 56.164062 46.351562 55.6875 46.351562 C 55.417969 46.351562 55.15625 46.574219 55.066406 46.878906 C 55.035156 47.011719 55 47.378906 55 47.6875 L 55 48.242188 L 54.414062 48.210938 C 54.082031 48.1875 53.65625 48.15625 53.464844 48.136719 L 53.109375 48.101562 L 53.109375 47.75 C 53.109375 47.238281 53.277344 46.535156 53.492188 46.140625 C 53.683594 45.789062 54.140625 45.335938 54.472656 45.164062 C 55 44.890625 55.886719 44.796875 56.566406 44.9375 Z M 62.890625 44.9375 C 63.710938 45.109375 64.3125 45.714844 64.621094 46.683594 C 64.871094 47.445312 64.933594 47.832031 65 48.988281 C 65.113281 50.886719 64.90625 52.863281 64.5 53.757812 C 64.261719 54.269531 63.796875 54.742188 63.3125 54.960938 C 62.761719 55.203125 61.917969 55.222656 61.324219 54.992188 C 60.054688 54.519531 59.527344 53.046875 59.527344 50 C 59.527344 47.222656 59.945312 45.796875 60.933594 45.222656 C 61.5 44.886719 62.195312 44.785156 62.890625 44.9375 Z M 69.230469 44.964844 C 69.964844 45.183594 70.527344 45.757812 70.8125 46.574219 C 71.4375 48.417969 71.390625 52.214844 70.722656 53.730469 C 70.511719 54.195312 70.046875 54.714844 69.648438 54.914062 C 69.238281 55.121094 68.566406 55.214844 68.074219 55.136719 C 66.90625 54.945312 66.25 54.183594 65.933594 52.628906 C 65.804688 52.019531 65.789062 51.6875 65.785156 50.101562 C 65.777344 48.140625 65.835938 47.535156 66.121094 46.621094 C 66.214844 46.324219 66.386719 45.972656 66.539062 45.777344 C 66.824219 45.40625 67.371094 45.035156 67.796875 44.9375 C 68.230469 44.84375 68.859375 44.859375 69.230469 44.964844 Z M 75.757812 45.082031 C 76.964844 45.636719 77.453125 47.074219 77.445312 50.101562 C 77.445312 53.121094 76.933594 54.507812 75.636719 55 C 75.09375 55.203125 74.3125 55.203125 73.777344 55.007812 C 72.472656 54.511719 71.960938 53.101562 71.960938 50.011719 C 71.960938 46.742188 72.507812 45.371094 73.980469 44.953125 C 74.472656 44.8125 75.296875 44.871094 75.757812 45.082031 Z M 27.230469 45.742188 L 27.230469 46.488281 L 26.148438 46.488281 L 26.148438 53.445312 L 27.230469 53.445312 L 27.230469 55 L 24.886719 54.988281 L 22.535156 54.964844 L 22.535156 53.480469 L 23.0625 53.460938 L 23.582031 53.4375 L 23.582031 46.492188 L 23.0625 46.472656 L 22.535156 46.453125 L 22.511719 45.722656 L 22.492188 45 L 27.230469 45 Z M 23.289062 57.582031 C 23.324219 57.628906 23.453125 57.988281 23.574219 58.378906 C 24.554688 61.519531 26.363281 64.859375 28.546875 67.535156 C 29.3125 68.472656 30.960938 70.164062 31.917969 70.988281 C 35.507812 74.082031 39.804688 76.195312 44.425781 77.15625 C 46.390625 77.5625 47.574219 77.667969 50 77.667969 C 52.085938 77.667969 52.703125 77.628906 54.257812 77.390625 C 57.710938 76.859375 61.140625 75.621094 64.1875 73.804688 C 69.980469 70.34375 74.390625 64.785156 76.417969 58.390625 L 76.703125 57.492188 L 77.15625 57.511719 C 77.695312 57.539062 77.6875 57.460938 77.230469 58.851562 C 76.128906 62.203125 74.511719 65.175781 72.324219 67.90625 C 71.816406 68.546875 70.332031 70.203125 70.074219 70.417969 C 70.007812 70.480469 69.675781 70.777344 69.34375 71.085938 C 65.335938 74.832031 59.835938 77.480469 54.359375 78.304688 C 51.601562 78.714844 48.464844 78.730469 45.84375 78.335938 C 40.796875 77.582031 36.085938 75.519531 32.128906 72.34375 C 28.238281 69.222656 25.257812 65.203125 23.398438 60.574219 C 22.992188 59.574219 22.359375 57.636719 22.414062 57.546875 C 22.460938 57.464844 23.222656 57.492188 23.289062 57.582031 Z M 35.980469 57.851562 C 36.695312 59.164062 38.039062 60.84375 39.222656 61.914062 C 43.269531 65.539062 48.695312 66.886719 53.988281 65.566406 C 57.972656 64.574219 61.6875 61.8125 63.769531 58.277344 C 63.917969 58.011719 64.09375 57.738281 64.15625 57.648438 L 64.261719 57.5 L 69.121094 57.5 C 71.789062 57.5 73.992188 57.519531 74.007812 57.554688 C 74.09375 57.6875 73.175781 60.019531 72.519531 61.296875 C 70.085938 66.082031 66.332031 69.890625 61.601562 72.363281 C 56.742188 74.90625 51.148438 75.769531 45.65625 74.832031 C 37.742188 73.472656 30.742188 68.148438 27.25 60.832031 C 26.613281 59.5 25.90625 57.636719 26 57.539062 C 26.019531 57.519531 28.230469 57.5 30.914062 57.5 L 35.789062 57.5 Z M 62.925781 57.539062 C 62.972656 57.59375 62.472656 58.386719 61.933594 59.085938 C 61.414062 59.785156 60.121094 61.109375 59.425781 61.667969 C 55.757812 64.621094 50.960938 65.6875 46.417969 64.5625 C 42.65625 63.636719 39.472656 61.332031 37.285156 57.964844 C 37.148438 57.757812 37.054688 57.5625 37.074219 57.539062 C 37.128906 57.488281 62.871094 57.488281 62.925781 57.539062 Z M 62.925781 57.539062 "/>
<path style=" stroke:none;fill-rule:nonzero;fill:rgb(0%,0%,0%);fill-opacity:1;" d="M 46.4375 27.527344 L 44.59375 27.804688 L 44.59375 27.972656 C 44.59375 28.066406 44.640625 28.464844 44.710938 28.863281 C 44.835938 29.667969 44.8125 29.640625 45.34375 29.554688 L 45.585938 29.511719 L 45.507812 28.992188 C 45.460938 28.710938 45.425781 28.472656 45.4375 28.460938 C 45.445312 28.453125 45.609375 28.425781 45.789062 28.398438 L 46.128906 28.363281 L 46.175781 28.65625 C 46.324219 29.5625 46.554688 31.175781 46.554688 31.277344 C 46.554688 31.371094 46.480469 31.414062 46.230469 31.445312 L 45.898438 31.488281 L 45.953125 31.832031 C 45.988281 32.027344 46.019531 32.1875 46.035156 32.203125 C 46.046875 32.222656 46.613281 32.148438 47.285156 32.046875 L 48.511719 31.863281 L 48.511719 31.683594 C 48.511719 31.585938 48.492188 31.414062 48.472656 31.304688 C 48.433594 31.109375 48.425781 31.109375 48.121094 31.15625 C 47.945312 31.183594 47.789062 31.1875 47.777344 31.175781 C 47.742188 31.148438 47.296875 28.222656 47.324219 28.195312 C 47.371094 28.148438 47.980469 28.0625 48 28.101562 C 48.011719 28.121094 48.0625 28.359375 48.109375 28.628906 L 48.1875 29.113281 L 48.535156 29.074219 C 48.730469 29.054688 48.898438 29.027344 48.914062 29.011719 C 48.9375 28.988281 48.738281 27.554688 48.675781 27.34375 C 48.628906 27.1875 48.609375 27.195312 46.4375 27.527344 Z M 46.4375 27.527344 "/>
<path style=" stroke:none;fill-rule:nonzero;fill:rgb(0%,0%,0%);fill-opacity:1;" d="M 49.863281 27.59375 L 49.863281 27.972656 L 50.164062 27.972656 C 50.332031 27.972656 50.480469 28 50.5 28.035156 C 50.527344 28.066406 50.507812 28.769531 50.460938 29.59375 L 50.378906 31.085938 L 50.039062 31.074219 L 49.695312 31.054688 L 49.65625 31.8125 L 50.757812 31.851562 C 51.363281 31.878906 51.9375 31.914062 52.046875 31.933594 C 52.222656 31.964844 52.230469 31.960938 52.242188 31.664062 C 52.242188 31.492188 52.25 31.3125 52.257812 31.261719 C 52.261719 31.214844 52.136719 31.167969 51.925781 31.148438 C 51.527344 31.109375 51.5625 31.296875 51.648438 29.371094 L 51.703125 28.109375 L 52.417969 28.109375 L 52.445312 27.738281 C 52.472656 27.289062 52.574219 27.324219 50.964844 27.261719 L 49.863281 27.214844 Z M 49.863281 27.59375 "/>
<path style=" stroke:none;fill-rule:nonzero;fill:rgb(0%,0%,0%);fill-opacity:1;" d="M 53.621094 27.519531 C 53.609375 27.566406 53.566406 27.722656 53.527344 27.863281 C 53.488281 28.011719 53.464844 28.15625 53.480469 28.183594 C 53.5 28.210938 53.636719 28.25 53.785156 28.277344 C 53.933594 28.304688 54.054688 28.359375 54.054688 28.398438 C 54.054688 28.445312 53.898438 29.109375 53.703125 29.878906 C 53.324219 31.386719 53.351562 31.34375 52.925781 31.222656 C 52.710938 31.164062 52.703125 31.167969 52.640625 31.40625 C 52.5 31.9375 52.417969 31.878906 53.683594 32.203125 C 54.316406 32.363281 54.863281 32.492188 54.90625 32.5 C 54.980469 32.5 55.136719 32.074219 55.136719 31.863281 C 55.136719 31.789062 55.054688 31.742188 54.863281 31.714844 C 54.714844 31.6875 54.574219 31.640625 54.554688 31.609375 C 54.511719 31.546875 54.609375 31.054688 54.738281 30.636719 L 54.804688 30.425781 L 55.25 30.546875 C 55.5 30.621094 55.722656 30.65625 55.75 30.621094 C 55.769531 30.59375 55.824219 30.4375 55.863281 30.269531 C 55.953125 29.917969 55.945312 29.914062 55.398438 29.796875 C 55.175781 29.75 55 29.683594 55 29.648438 C 55 29.527344 55.210938 28.75 55.257812 28.703125 C 55.285156 28.675781 55.582031 28.722656 55.914062 28.8125 C 56.507812 28.960938 56.519531 28.964844 56.511719 29.164062 C 56.511719 29.269531 56.5 29.414062 56.480469 29.488281 C 56.460938 29.585938 56.511719 29.628906 56.789062 29.703125 C 56.980469 29.75 57.164062 29.789062 57.203125 29.796875 C 57.242188 29.796875 57.359375 29.492188 57.453125 29.121094 C 57.539062 28.75 57.601562 28.445312 57.574219 28.445312 C 57.554688 28.445312 56.65625 28.214844 55.585938 27.945312 C 54.261719 27.601562 53.636719 27.464844 53.621094 27.519531 Z M 53.621094 27.519531 "/>
<path style=" stroke:none;fill-rule:nonzero;fill:rgb(0%,0%,0%);fill-opacity:1;" d="M 41.082031 29.074219 C 38.972656 29.945312 39.113281 29.878906 39.164062 30.019531 C 39.1875 30.09375 39.25 30.257812 39.296875 30.386719 L 39.390625 30.609375 L 39.667969 30.5 C 39.824219 30.433594 39.964844 30.414062 39.992188 30.445312 C 40.066406 30.527344 41.167969 33.175781 41.140625 33.203125 C 41.128906 33.210938 41.011719 33.257812 40.890625 33.3125 C 40.769531 33.359375 40.65625 33.417969 40.640625 33.445312 C 40.621094 33.480469 40.667969 33.640625 40.738281 33.8125 L 40.871094 34.113281 L 41.128906 34.027344 C 41.351562 33.945312 43.054688 33.242188 43.082031 33.214844 C 43.085938 33.214844 43.019531 33.046875 42.933594 32.851562 L 42.777344 32.492188 L 42.574219 32.601562 C 42.460938 32.65625 42.34375 32.703125 42.3125 32.703125 C 42.238281 32.703125 41.8125 31.703125 41.835938 31.609375 C 41.851562 31.574219 41.953125 31.5 42.066406 31.453125 C 42.261719 31.371094 42.285156 31.386719 42.90625 31.90625 C 43.257812 32.203125 43.65625 32.527344 43.785156 32.636719 L 44.027344 32.824219 L 44.609375 32.574219 C 44.933594 32.4375 45.214844 32.304688 45.238281 32.285156 C 45.285156 32.238281 45.035156 31.621094 44.964844 31.621094 C 44.945312 31.621094 44.824219 31.664062 44.695312 31.714844 L 44.464844 31.816406 L 43.871094 31.335938 C 43.546875 31.082031 43.261719 30.859375 43.25 30.84375 C 43.238281 30.832031 43.289062 30.738281 43.363281 30.628906 C 43.917969 29.84375 43.414062 28.75 42.445312 28.667969 C 42.175781 28.648438 41.972656 28.710938 41.082031 29.074219 Z M 42.113281 29.667969 C 42.433594 29.8125 42.519531 30.214844 42.285156 30.464844 C 42.109375 30.664062 41.5625 30.914062 41.488281 30.832031 C 41.4375 30.789062 41.082031 29.953125 41.082031 29.890625 C 41.082031 29.886719 41.136719 29.863281 41.203125 29.84375 C 41.261719 29.824219 41.4375 29.757812 41.585938 29.703125 C 41.917969 29.574219 41.914062 29.574219 42.113281 29.667969 Z M 42.113281 29.667969 "/>
<path style=" stroke:none;fill-rule:nonzero;fill:rgb(0%,0%,0%);fill-opacity:1;" d="M 58.417969 29.25 L 58.25 29.574219 L 58.519531 29.695312 C 58.667969 29.761719 58.804688 29.84375 58.824219 29.878906 C 58.859375 29.925781 57.710938 32.464844 57.585938 32.628906 C 57.574219 32.648438 57.425781 32.59375 57.257812 32.507812 C 57.082031 32.425781 56.933594 32.371094 56.917969 32.378906 C 56.914062 32.390625 56.835938 32.546875 56.761719 32.722656 L 56.621094 33.046875 L 57.667969 33.546875 C 58.25 33.816406 58.769531 34.0625 58.835938 34.082031 C 58.933594 34.113281 58.992188 34.046875 59.109375 33.816406 C 59.1875 33.648438 59.257812 33.492188 59.257812 33.472656 C 59.257812 33.453125 59.121094 33.378906 58.953125 33.304688 L 58.65625 33.167969 L 58.777344 32.886719 C 58.933594 32.527344 59.933594 30.453125 59.964844 30.417969 C 59.980469 30.40625 60.109375 30.460938 60.261719 30.535156 C 60.414062 30.613281 60.554688 30.675781 60.566406 30.675781 C 60.585938 30.675781 60.683594 30.527344 60.777344 30.335938 L 60.945312 30 L 60.730469 29.90625 C 60.609375 29.851562 60.085938 29.609375 59.582031 29.363281 C 59.066406 29.121094 58.636719 28.917969 58.621094 28.917969 C 58.601562 28.917969 58.507812 29.066406 58.417969 29.25 Z M 58.417969 29.25 "/>
<path style=" stroke:none;fill-rule:nonzero;fill:rgb(0%,0%,0%);fill-opacity:1;" d="M 61.761719 30.886719 L 61.554688 31.175781 L 61.769531 31.351562 L 61.980469 31.527344 L 61.082031 32.722656 C 60.585938 33.378906 60.164062 33.917969 60.136719 33.917969 C 60.109375 33.917969 60.007812 33.859375 59.914062 33.785156 C 59.816406 33.710938 59.730469 33.648438 59.714844 33.648438 C 59.695312 33.648438 59.585938 33.785156 59.464844 33.953125 L 59.25 34.25 L 60.871094 35.464844 L 62.488281 36.683594 L 62.871094 36.175781 C 63.074219 35.898438 63.261719 35.628906 63.285156 35.582031 C 63.304688 35.519531 63.195312 35.390625 62.992188 35.238281 L 62.675781 34.992188 L 62.5625 35.148438 C 62.222656 35.59375 62.3125 35.601562 61.703125 35.136719 C 61.398438 34.898438 61.148438 34.6875 61.148438 34.664062 C 61.148438 34.636719 61.304688 34.414062 61.492188 34.164062 L 61.835938 33.710938 L 62.066406 33.878906 C 62.195312 33.972656 62.398438 34.128906 62.527344 34.222656 L 62.757812 34.398438 L 62.964844 34.109375 C 63.082031 33.953125 63.175781 33.804688 63.175781 33.785156 C 63.175781 33.761719 62.980469 33.59375 62.738281 33.417969 L 62.296875 33.09375 L 62.5 32.816406 C 62.613281 32.664062 62.757812 32.464844 62.824219 32.378906 L 62.945312 32.222656 L 63.445312 32.601562 C 64.128906 33.113281 64.101562 33.066406 63.886719 33.378906 C 63.785156 33.527344 63.710938 33.664062 63.722656 33.667969 C 63.738281 33.683594 63.878906 33.789062 64.027344 33.90625 C 64.183594 34.027344 64.335938 34.121094 64.363281 34.121094 C 64.398438 34.113281 64.613281 33.863281 64.835938 33.5625 L 65.25 33 L 63.675781 31.824219 C 62.8125 31.175781 62.074219 30.636719 62.039062 30.621094 C 62.007812 30.613281 61.878906 30.730469 61.761719 30.886719 Z M 61.761719 30.886719 "/>
<path style=" stroke:none;fill-rule:nonzero;fill:rgb(0%,0%,0%);fill-opacity:1;" d="M 36.351562 31.804688 C 35.554688 32.417969 34.84375 32.960938 34.769531 33.007812 C 34.65625 33.09375 34.664062 33.113281 34.886719 33.40625 L 35.121094 33.714844 L 35.332031 33.539062 C 35.453125 33.4375 35.554688 33.371094 35.566406 33.386719 C 35.574219 33.398438 35.964844 33.914062 36.425781 34.527344 C 36.890625 35.140625 37.296875 35.683594 37.332031 35.738281 C 37.363281 35.804688 37.316406 35.886719 37.175781 36.007812 L 36.960938 36.183594 L 37.203125 36.464844 L 37.4375 36.757812 L 39.007812 35.566406 C 39.871094 34.914062 40.582031 34.351562 40.59375 34.316406 C 40.609375 34.289062 40.433594 34.019531 40.203125 33.714844 C 39.75 33.121094 39.769531 33.128906 39.332031 33.5 L 39.09375 33.695312 L 39.285156 33.9375 C 39.386719 34.074219 39.453125 34.210938 39.433594 34.25 C 39.335938 34.40625 38.363281 35.082031 38.3125 35.027344 C 38.183594 34.890625 37.636719 34.164062 37.636719 34.128906 C 37.640625 34.109375 37.835938 33.9375 38.082031 33.761719 C 38.554688 33.414062 38.554688 33.414062 38.222656 33.011719 L 38.0625 32.8125 L 37.609375 33.167969 C 37.359375 33.371094 37.148438 33.519531 37.136719 33.507812 C 36.878906 33.175781 36.554688 32.710938 36.554688 32.664062 C 36.5625 32.628906 36.804688 32.417969 37.101562 32.203125 L 37.648438 31.804688 L 37.8125 32 C 37.898438 32.109375 37.964844 32.214844 37.972656 32.242188 C 37.972656 32.277344 38.007812 32.296875 38.039062 32.296875 C 38.128906 32.296875 38.710938 31.878906 38.714844 31.8125 C 38.714844 31.742188 37.90625 30.675781 37.851562 30.683594 C 37.824219 30.683594 37.148438 31.1875 36.351562 31.804688 Z M 36.351562 31.804688 "/>
<path style=" stroke:none;fill-rule:nonzero;fill:rgb(0%,0%,0%);fill-opacity:1;" d="M 66.035156 34.238281 L 65.75 34.472656 L 65.960938 34.738281 C 66.085938 34.890625 66.148438 35.027344 66.109375 35.0625 C 66.074219 35.085938 65.535156 35.511719 64.914062 36.007812 L 63.777344 36.898438 L 63.628906 36.714844 C 63.546875 36.613281 63.445312 36.488281 63.414062 36.4375 C 63.359375 36.363281 63.285156 36.390625 63.054688 36.566406 C 62.898438 36.6875 62.769531 36.804688 62.769531 36.832031 C 62.769531 36.851562 62.960938 37.113281 63.1875 37.40625 C 64.714844 39.34375 64.816406 39.453125 65.304688 39.667969 C 65.714844 39.851562 66.09375 39.890625 66.5 39.796875 C 67.585938 39.539062 68.386719 38.703125 68.492188 37.703125 C 68.539062 37.195312 68.433594 36.796875 68.101562 36.285156 C 67.859375 35.90625 66.453125 34.082031 66.359375 34.027344 C 66.335938 34.011719 66.1875 34.109375 66.035156 34.238281 Z M 67.035156 36.09375 C 67.269531 36.371094 67.5 36.886719 67.5 37.140625 C 67.5 38.101562 66.09375 39.039062 65.285156 38.621094 C 65.074219 38.511719 64.507812 37.917969 64.539062 37.835938 C 64.5625 37.789062 66.832031 35.964844 66.878906 35.953125 C 66.890625 35.945312 66.960938 36.011719 67.035156 36.09375 Z M 67.035156 36.09375 "/>
<path style=" stroke:none;fill-rule:nonzero;fill:rgb(0%,0%,0%);fill-opacity:1;" d="M 33.195312 34.554688 C 33.007812 34.8125 32.992188 34.863281 33.074219 34.933594 C 33.222656 35.054688 33.203125 35.101562 32.945312 35.1875 C 32.535156 35.335938 32.054688 35.835938 31.777344 36.40625 C 31.539062 36.871094 31.519531 36.964844 31.519531 37.460938 C 31.519531 38.136719 31.730469 38.613281 32.222656 39.074219 C 32.738281 39.554688 33.175781 39.75 33.835938 39.785156 C 34.359375 39.8125 34.425781 39.796875 34.824219 39.601562 C 35.363281 39.335938 35.886719 38.785156 36.175781 38.175781 C 36.460938 37.582031 36.464844 36.972656 36.203125 36.398438 C 36.101562 36.1875 35.988281 36.011719 35.9375 36.011719 C 35.886719 36.011719 35.324219 36.277344 35.140625 36.390625 C 35.136719 36.40625 35.203125 36.582031 35.304688 36.785156 C 35.554688 37.289062 35.527344 37.789062 35.230469 38.15625 C 34.683594 38.832031 33.816406 38.816406 33.085938 38.113281 C 32.535156 37.585938 32.398438 36.953125 32.730469 36.390625 C 32.988281 35.945312 33.3125 35.777344 33.851562 35.789062 C 34.289062 35.796875 34.289062 35.796875 34.480469 35.539062 C 34.582031 35.398438 34.664062 35.261719 34.664062 35.25 C 34.664062 35.214844 33.464844 34.257812 33.433594 34.257812 C 33.417969 34.261719 33.316406 34.390625 33.195312 34.554688 Z M 33.195312 34.554688 "/>
<path style=" stroke:none;fill-rule:nonzero;fill:rgb(0%,0%,0%);fill-opacity:1;" d="M 49.988281 36.054688 C 49.964844 36.085938 49.851562 36.414062 49.738281 36.769531 L 49.519531 37.425781 L 48.738281 37.445312 L 47.953125 37.464844 L 48.566406 37.898438 C 48.914062 38.140625 49.1875 38.371094 49.1875 38.414062 C 49.1875 38.453125 49.082031 38.796875 48.953125 39.183594 L 48.722656 39.871094 L 49.074219 39.621094 C 49.269531 39.480469 49.535156 39.285156 49.667969 39.175781 C 49.804688 39.074219 49.953125 38.988281 49.992188 38.988281 C 50.035156 38.988281 50.335938 39.183594 50.667969 39.417969 L 51.261719 39.851562 L 51.035156 39.109375 C 50.898438 38.695312 50.824219 38.34375 50.859375 38.316406 C 50.890625 38.296875 51.167969 38.09375 51.480469 37.871094 L 52.039062 37.464844 L 51.257812 37.445312 L 50.480469 37.425781 L 50.25 36.710938 C 50.121094 36.316406 50.007812 36.019531 49.988281 36.054688 Z M 49.988281 36.054688 "/>
<path style=" stroke:none;fill-rule:nonzero;fill:rgb(0%,0%,0%);fill-opacity:1;" d="M 44.972656 38.175781 L 44.785156 38.777344 L 44.167969 38.796875 L 43.5625 38.816406 L 43.988281 39.121094 C 44.222656 39.289062 44.445312 39.445312 44.480469 39.464844 C 44.519531 39.492188 44.460938 39.769531 44.335938 40.128906 L 44.128906 40.75 L 44.480469 40.5 C 44.675781 40.359375 44.914062 40.1875 45.007812 40.113281 L 45.1875 39.988281 L 45.703125 40.363281 C 45.988281 40.574219 46.214844 40.730469 46.214844 40.714844 C 46.214844 40.703125 46.140625 40.453125 46.046875 40.164062 C 45.953125 39.871094 45.878906 39.59375 45.878906 39.554688 C 45.878906 39.511719 46.09375 39.324219 46.359375 39.136719 L 46.835938 38.789062 L 45.585938 38.75 L 45.398438 38.183594 C 45.289062 37.871094 45.195312 37.609375 45.183594 37.59375 C 45.167969 37.582031 45.074219 37.84375 44.972656 38.175781 Z M 44.972656 38.175781 "/>
<path style=" stroke:none;fill-rule:nonzero;fill:rgb(0%,0%,0%);fill-opacity:1;" d="M 54.613281 38.140625 L 54.414062 38.75 L 53.789062 38.769531 L 53.167969 38.789062 L 53.667969 39.15625 L 54.167969 39.519531 L 53.972656 40.113281 C 53.871094 40.4375 53.785156 40.714844 53.785156 40.730469 C 53.785156 40.738281 54.011719 40.574219 54.296875 40.363281 L 54.8125 39.988281 L 54.992188 40.113281 C 55.085938 40.183594 55.324219 40.359375 55.519531 40.492188 L 55.871094 40.75 L 55.664062 40.128906 C 55.539062 39.769531 55.480469 39.492188 55.519531 39.464844 C 55.554688 39.445312 55.777344 39.289062 56.011719 39.121094 L 56.4375 38.816406 L 55.835938 38.785156 L 55.238281 38.75 L 55.027344 38.140625 L 54.816406 37.539062 Z M 54.613281 38.140625 "/>
<path style=" stroke:none;fill-rule:nonzero;fill:rgb(0%,0%,0%);fill-opacity:1;" d="M 37.480469 46.636719 C 37.128906 46.90625 36.992188 48.148438 37.054688 50.640625 C 37.109375 52.960938 37.210938 53.34375 37.8125 53.425781 C 38.183594 53.472656 38.414062 53.277344 38.5625 52.785156 C 38.667969 52.445312 38.683594 52.09375 38.683594 49.964844 C 38.683594 47.832031 38.667969 47.488281 38.5625 47.148438 C 38.492188 46.925781 38.378906 46.714844 38.296875 46.65625 C 38.113281 46.535156 37.636719 46.519531 37.480469 46.636719 Z M 37.480469 46.636719 "/>
<path style=" stroke:none;fill-rule:nonzero;fill:rgb(0%,0%,0%);fill-opacity:1;" d="M 62.046875 46.417969 C 61.628906 46.59375 61.527344 47.453125 61.574219 50.539062 C 61.59375 51.785156 61.636719 52.917969 61.675781 53.0625 C 61.898438 53.914062 62.730469 53.8125 62.886719 52.917969 C 62.972656 52.386719 62.945312 47.242188 62.851562 46.917969 C 62.722656 46.488281 62.386719 46.277344 62.046875 46.417969 Z M 62.046875 46.417969 "/>
<path style=" stroke:none;fill-rule:nonzero;fill:rgb(0%,0%,0%);fill-opacity:1;" d="M 68.242188 46.4375 C 67.878906 46.621094 67.871094 46.6875 67.851562 49.796875 C 67.835938 51.378906 67.851562 52.796875 67.871094 52.953125 C 67.960938 53.546875 68.480469 53.84375 68.835938 53.511719 C 69.128906 53.242188 69.15625 52.964844 69.15625 50.167969 C 69.15625 48.714844 69.128906 47.359375 69.101562 47.140625 C 69.011719 46.539062 68.640625 46.230469 68.242188 46.4375 Z M 68.242188 46.4375 "/>
<path style=" stroke:none;fill-rule:nonzero;fill:rgb(0%,0%,0%);fill-opacity:1;" d="M 74.492188 46.414062 C 74.074219 46.585938 74.046875 46.824219 74.054688 50.054688 C 74.054688 51.648438 74.082031 52.980469 74.121094 53.109375 C 74.214844 53.433594 74.4375 53.648438 74.6875 53.648438 C 75.335938 53.640625 75.433594 53.101562 75.386719 49.613281 C 75.359375 47.082031 75.324219 46.75 75.082031 46.535156 C 74.933594 46.398438 74.664062 46.34375 74.492188 46.414062 Z M 74.492188 46.414062 "/>
<path style=" stroke:none;fill-rule:nonzero;fill:rgb(0%,0%,0%);fill-opacity:1;" d="M 33.511719 61.046875 C 32.8125 61.269531 32.074219 61.988281 31.851562 62.65625 C 31.6875 63.136719 31.742188 63.789062 31.988281 64.277344 C 32.230469 64.785156 32.796875 65.390625 33.257812 65.640625 C 33.582031 65.824219 33.675781 65.84375 34.1875 65.835938 C 34.507812 65.835938 34.84375 65.796875 34.945312 65.757812 C 35.109375 65.6875 35.121094 65.65625 35.074219 65.492188 C 35.039062 65.390625 34.980469 65.175781 34.9375 65.019531 L 34.863281 64.738281 L 34.628906 64.835938 C 34.304688 64.972656 33.824219 64.960938 33.527344 64.804688 C 32.675781 64.371094 32.609375 63.304688 33.390625 62.601562 C 34.15625 61.90625 35.101562 61.9375 35.609375 62.683594 C 35.8125 62.980469 35.863281 63.488281 35.714844 63.777344 C 35.609375 63.980469 35.609375 64 35.730469 64.175781 C 36.066406 64.640625 36.0625 64.640625 36.695312 64.121094 C 37.007812 63.859375 37.269531 63.621094 37.285156 63.585938 C 37.289062 63.5625 37.195312 63.40625 37.066406 63.257812 C 36.871094 63.019531 36.824219 62.992188 36.757812 63.074219 C 36.628906 63.230469 36.574219 63.195312 36.535156 62.933594 C 36.425781 62.285156 35.859375 61.566406 35.175781 61.222656 C 34.648438 60.953125 34.007812 60.886719 33.511719 61.046875 Z M 33.511719 61.046875 "/>
<path style=" stroke:none;fill-rule:nonzero;fill:rgb(0%,0%,0%);fill-opacity:1;" d="M 65.535156 61.019531 C 64.851562 61.121094 64.488281 61.417969 63.164062 62.972656 L 62.4375 63.816406 L 62.722656 64.074219 L 63.007812 64.335938 L 63.230469 64.085938 C 63.351562 63.953125 63.480469 63.851562 63.511719 63.863281 C 63.636719 63.914062 65.742188 65.75 65.742188 65.8125 C 65.742188 65.84375 65.65625 65.972656 65.539062 66.101562 L 65.34375 66.332031 L 65.640625 66.574219 L 65.9375 66.824219 L 66.835938 65.757812 C 67.90625 64.5 67.988281 64.390625 68.136719 63.960938 C 68.304688 63.4375 68.277344 62.945312 68.039062 62.453125 C 67.582031 61.472656 66.527344 60.871094 65.535156 61.019531 Z M 66.136719 62.242188 C 66.289062 62.316406 66.5625 62.511719 66.730469 62.675781 C 67.378906 63.3125 67.390625 63.925781 66.769531 64.65625 L 66.574219 64.890625 L 65.433594 63.925781 C 64.804688 63.390625 64.285156 62.9375 64.269531 62.914062 C 64.238281 62.816406 64.925781 62.214844 65.175781 62.128906 C 65.472656 62.019531 65.722656 62.046875 66.136719 62.242188 Z M 66.136719 62.242188 "/>
<path style=" stroke:none;fill-rule:nonzero;fill:rgb(0%,0%,0%);fill-opacity:1;" d="M 37.386719 64.109375 L 37.167969 64.417969 L 37.363281 64.546875 C 37.480469 64.621094 37.566406 64.703125 37.566406 64.742188 C 37.566406 64.804688 36.480469 66.34375 35.992188 66.980469 L 35.796875 67.230469 L 35.585938 67.066406 L 35.378906 66.90625 L 35.148438 67.210938 C 35.019531 67.371094 34.933594 67.519531 34.945312 67.535156 C 35.007812 67.59375 38.183594 69.863281 38.210938 69.863281 C 38.222656 69.863281 38.417969 69.601562 38.648438 69.285156 C 39.113281 68.640625 39.121094 68.710938 38.59375 68.371094 L 38.363281 68.222656 L 38.203125 68.417969 C 38.113281 68.527344 38.046875 68.636719 38.039062 68.664062 C 38.039062 68.695312 38.007812 68.714844 37.964844 68.714844 C 37.878906 68.714844 36.824219 67.964844 36.824219 67.90625 C 36.824219 67.871094 37.351562 67.109375 37.472656 66.964844 C 37.488281 66.953125 37.710938 67.082031 37.972656 67.261719 C 38.238281 67.445312 38.453125 67.574219 38.464844 67.5625 C 38.480469 67.546875 38.566406 67.417969 38.667969 67.285156 C 38.769531 67.148438 38.851562 67.011719 38.851562 66.980469 C 38.851562 66.953125 38.648438 66.789062 38.414062 66.628906 C 38.167969 66.464844 37.972656 66.316406 37.972656 66.304688 C 37.972656 66.25 38.539062 65.472656 38.582031 65.472656 C 38.621094 65.472656 39.59375 66.148438 39.722656 66.257812 C 39.738281 66.269531 39.667969 66.386719 39.566406 66.511719 C 39.472656 66.640625 39.390625 66.777344 39.390625 66.804688 C 39.390625 66.871094 39.972656 67.296875 40.054688 67.296875 C 40.09375 67.289062 40.636719 66.554688 40.832031 66.242188 C 40.863281 66.183594 40.761719 66.066406 40.527344 65.890625 C 39.992188 65.5 37.75 63.886719 37.667969 63.835938 C 37.636719 63.816406 37.507812 63.9375 37.386719 64.109375 Z M 37.386719 64.109375 "/>
<path style=" stroke:none;fill-rule:nonzero;fill:rgb(0%,0%,0%);fill-opacity:1;" d="M 61.242188 64.636719 C 60.6875 65.027344 59.953125 65.546875 59.613281 65.789062 L 58.988281 66.230469 L 59.109375 66.433594 C 59.167969 66.539062 59.277344 66.675781 59.335938 66.738281 C 59.4375 66.832031 59.472656 66.824219 59.65625 66.695312 L 59.859375 66.554688 L 60.019531 66.769531 C 60.113281 66.890625 60.511719 67.445312 60.90625 68.007812 L 61.628906 69.019531 L 61.414062 69.203125 L 61.203125 69.378906 L 61.417969 69.6875 L 61.628906 70.007812 L 61.945312 69.777344 C 62.121094 69.648438 62.859375 69.128906 63.582031 68.613281 C 64.304688 68.101562 64.90625 67.675781 64.917969 67.667969 C 64.933594 67.65625 64.75 67.386719 64.527344 67.066406 C 64.269531 66.714844 64.082031 66.507812 64.035156 66.535156 C 63.988281 66.554688 63.824219 66.667969 63.664062 66.777344 L 63.371094 66.972656 L 63.539062 67.195312 C 63.636719 67.316406 63.722656 67.445312 63.730469 67.488281 C 63.75 67.554688 62.730469 68.3125 62.621094 68.3125 C 62.5625 68.3125 61.960938 67.472656 61.960938 67.386719 C 61.960938 67.332031 62.359375 67.027344 62.789062 66.75 C 62.84375 66.710938 62.703125 66.464844 62.433594 66.128906 C 62.414062 66.101562 62.195312 66.214844 61.960938 66.386719 C 61.722656 66.554688 61.507812 66.6875 61.480469 66.6875 C 61.433594 66.6875 60.960938 66.0625 60.90625 65.917969 C 60.886719 65.871094 61.113281 65.664062 61.414062 65.453125 C 61.917969 65.085938 62.09375 65 62.09375 65.113281 C 62.09375 65.148438 62.167969 65.257812 62.257812 65.363281 L 62.414062 65.566406 L 62.640625 65.417969 C 63.167969 65.082031 63.164062 65.148438 62.703125 64.5 C 62.480469 64.183594 62.285156 63.917969 62.269531 63.917969 C 62.261719 63.917969 61.804688 64.242188 61.242188 64.636719 Z M 61.242188 64.636719 "/>
<path style=" stroke:none;fill-rule:nonzero;fill:rgb(0%,0%,0%);fill-opacity:1;" d="M 40.945312 66.453125 C 40.722656 67.011719 40.714844 66.960938 41.011719 67.082031 C 41.164062 67.140625 41.285156 67.222656 41.285156 67.261719 C 41.285156 67.296875 41.039062 67.925781 40.75 68.648438 C 40.417969 69.460938 40.175781 69.972656 40.113281 69.988281 C 40.054688 70 39.917969 69.960938 39.8125 69.90625 L 39.609375 69.804688 L 39.460938 70.148438 C 39.378906 70.335938 39.335938 70.511719 39.371094 70.539062 C 39.414062 70.574219 40.046875 70.835938 41.460938 71.398438 C 41.535156 71.425781 41.757812 70.964844 41.757812 70.789062 C 41.757812 70.742188 41.648438 70.648438 41.519531 70.585938 L 41.285156 70.472656 L 41.390625 70.222656 C 41.445312 70.082031 41.546875 69.84375 41.601562 69.695312 C 41.75 69.324219 41.757812 69.316406 42.027344 69.445312 L 42.261719 69.5625 L 42.3125 70.167969 C 42.335938 70.507812 42.386719 71.007812 42.414062 71.285156 L 42.464844 71.789062 L 43.074219 72.039062 C 43.414062 72.183594 43.695312 72.289062 43.722656 72.296875 C 43.742188 72.296875 43.824219 72.140625 43.898438 71.960938 L 44.046875 71.613281 L 43.777344 71.511719 C 43.492188 71.398438 43.480469 71.363281 43.414062 70.742188 C 43.390625 70.539062 43.359375 70.242188 43.335938 70.082031 C 43.296875 69.816406 43.304688 69.796875 43.453125 69.796875 C 43.714844 69.789062 44.15625 69.5625 44.3125 69.34375 C 44.789062 68.675781 44.582031 67.8125 43.851562 67.433594 C 43.609375 67.3125 41.109375 66.285156 41.046875 66.285156 C 41.027344 66.285156 40.980469 66.359375 40.945312 66.453125 Z M 42.886719 67.832031 C 43.378906 68.0625 43.5 68.460938 43.175781 68.785156 C 43.011719 68.945312 42.824219 68.953125 42.371094 68.804688 C 42.101562 68.722656 42.035156 68.667969 42.0625 68.585938 C 42.417969 67.609375 42.40625 67.613281 42.886719 67.832031 Z M 42.886719 67.832031 "/>
<path style=" stroke:none;fill-rule:nonzero;fill:rgb(0%,0%,0%);fill-opacity:1;" d="M 57.566406 66.8125 C 56.953125 67.09375 56.445312 67.332031 56.433594 67.335938 C 56.414062 67.34375 56.683594 67.988281 56.722656 68.027344 C 56.738281 68.039062 56.871094 67.988281 57.027344 67.90625 C 57.183594 67.824219 57.335938 67.785156 57.363281 67.816406 C 57.433594 67.886719 58.582031 70.453125 58.582031 70.527344 C 58.582031 70.5625 58.445312 70.640625 58.277344 70.714844 L 57.972656 70.84375 L 58.136719 71.195312 L 58.296875 71.539062 L 59.453125 71.027344 C 60.082031 70.742188 60.601562 70.464844 60.609375 70.417969 C 60.609375 70.316406 60.351562 69.796875 60.296875 69.796875 C 60.285156 69.796875 60.140625 69.859375 59.992188 69.9375 C 59.835938 70.011719 59.710938 70.066406 59.695312 70.054688 C 59.675781 70.027344 58.445312 67.296875 58.445312 67.269531 C 58.445312 67.257812 58.582031 67.195312 58.75 67.136719 C 58.917969 67.066406 59.054688 66.988281 59.054688 66.953125 C 59.054688 66.863281 58.761719 66.285156 58.722656 66.289062 C 58.695312 66.289062 58.183594 66.527344 57.566406 66.8125 Z M 57.566406 66.8125 "/>
<path style=" stroke:none;fill-rule:nonzero;fill:rgb(0%,0%,0%);fill-opacity:1;" d="M 54.359375 67.925781 C 53.285156 68.183594 52.390625 68.398438 52.386719 68.40625 C 52.378906 68.414062 52.414062 68.566406 52.460938 68.75 C 52.546875 69.109375 52.554688 69.109375 53 69.046875 L 53.203125 69.019531 L 53.519531 70.335938 C 53.953125 72.101562 53.945312 71.980469 53.601562 72.054688 C 53.40625 72.09375 53.3125 72.148438 53.3125 72.222656 C 53.3125 72.425781 53.453125 72.835938 53.519531 72.835938 C 53.582031 72.835938 55.898438 72.289062 55.925781 72.269531 C 55.933594 72.261719 55.898438 72.109375 55.851562 71.925781 C 55.761719 71.59375 55.757812 71.585938 55.535156 71.613281 C 55.027344 71.667969 55.0625 71.695312 54.925781 71.148438 C 54.859375 70.871094 54.804688 70.609375 54.796875 70.566406 C 54.796875 70.527344 54.972656 70.453125 55.1875 70.414062 C 55.730469 70.304688 55.757812 70.285156 55.667969 69.964844 C 55.636719 69.816406 55.585938 69.664062 55.574219 69.613281 C 55.554688 69.5625 55.417969 69.574219 55.074219 69.664062 L 54.609375 69.785156 L 54.492188 69.316406 C 54.433594 69.066406 54.390625 68.816406 54.40625 68.777344 C 54.433594 68.6875 55.59375 68.378906 55.6875 68.425781 C 55.722656 68.4375 55.761719 68.574219 55.785156 68.722656 C 55.8125 68.878906 55.863281 68.988281 55.917969 68.988281 C 56 68.988281 56.621094 68.84375 56.675781 68.8125 C 56.710938 68.789062 56.425781 67.636719 56.363281 67.539062 C 56.332031 67.480469 55.832031 67.574219 54.359375 67.925781 Z M 54.359375 67.925781 "/>
<path style=" stroke:none;fill-rule:nonzero;fill:rgb(0%,0%,0%);fill-opacity:1;" d="M 45.238281 68.289062 C 45.210938 68.464844 45.148438 68.871094 45.101562 69.1875 C 45.054688 69.507812 45.019531 69.769531 45.027344 69.769531 C 45.027344 69.777344 45.203125 69.804688 45.414062 69.824219 L 45.789062 69.871094 L 45.835938 69.511719 C 45.925781 68.832031 45.925781 68.832031 46.261719 68.871094 C 46.425781 68.886719 46.582031 68.917969 46.601562 68.9375 C 46.621094 68.964844 46.546875 69.628906 46.425781 70.417969 C 46.3125 71.214844 46.214844 71.878906 46.214844 71.90625 C 46.214844 71.925781 46.0625 71.9375 45.863281 71.933594 L 45.511719 71.925781 L 45.460938 72.261719 C 45.433594 72.445312 45.417969 72.601562 45.425781 72.609375 C 45.460938 72.636719 47.925781 72.980469 47.9375 72.960938 C 47.953125 72.945312 47.988281 72.785156 48.007812 72.59375 C 48.054688 72.269531 48.046875 72.25 47.898438 72.210938 C 47.8125 72.183594 47.667969 72.164062 47.585938 72.164062 C 47.507812 72.164062 47.425781 72.140625 47.414062 72.109375 C 47.390625 72.082031 47.480469 71.40625 47.59375 70.609375 L 47.804688 69.15625 L 48.136719 69.167969 C 48.3125 69.175781 48.472656 69.195312 48.492188 69.210938 C 48.511719 69.230469 48.5 69.464844 48.460938 69.742188 C 48.425781 70.011719 48.40625 70.242188 48.414062 70.257812 C 48.417969 70.261719 48.585938 70.277344 48.785156 70.289062 L 49.148438 70.304688 L 49.261719 69.527344 C 49.433594 68.445312 49.460938 68.539062 48.972656 68.488281 C 48.738281 68.460938 47.972656 68.351562 47.261719 68.242188 C 46.5625 68.136719 45.824219 68.035156 45.628906 68.007812 L 45.277344 67.960938 Z M 45.238281 68.289062 "/>
<path style=" stroke:none;fill-rule:nonzero;fill:rgb(0%,0%,0%);fill-opacity:1;" d="M 50.4375 68.445312 C 49.648438 68.480469 49.628906 68.488281 49.609375 68.640625 C 49.59375 68.730469 49.601562 68.90625 49.628906 69.027344 C 49.667969 69.25 49.675781 69.257812 49.992188 69.257812 L 50.324219 69.257812 L 50.363281 69.878906 C 50.386719 70.222656 50.425781 70.914062 50.445312 71.398438 L 50.492188 72.296875 L 49.796875 72.296875 L 49.796875 72.664062 C 49.796875 72.863281 49.816406 73.039062 49.851562 73.054688 C 49.945312 73.101562 52.363281 72.9375 52.363281 72.886719 C 52.363281 72.859375 52.363281 72.695312 52.363281 72.511719 L 52.363281 72.195312 L 52.035156 72.214844 C 51.738281 72.238281 51.703125 72.230469 51.667969 72.082031 C 51.648438 72 51.609375 71.296875 51.582031 70.519531 L 51.535156 69.121094 L 51.886719 69.121094 C 52.230469 69.121094 52.230469 69.121094 52.230469 68.898438 C 52.230469 68.785156 52.210938 68.613281 52.1875 68.527344 C 52.140625 68.359375 52.175781 68.363281 50.4375 68.445312 Z M 50.4375 68.445312 "/>
<path style=" stroke:none;fill-rule:nonzero;fill:rgb(0%,0%,0%);fill-opacity:1;" d="M 44.1875 59.167969 C 44.1875 59.203125 44.261719 59.453125 44.359375 59.730469 C 44.445312 60.007812 44.527344 60.257812 44.527344 60.277344 C 44.527344 60.296875 44.296875 60.480469 44.011719 60.683594 L 43.507812 61.046875 L 44.789062 61.085938 L 44.972656 61.65625 C 45.082031 61.964844 45.175781 62.210938 45.195312 62.1875 C 45.222656 62.167969 45.3125 61.917969 45.40625 61.636719 L 45.574219 61.113281 L 46.242188 61.09375 L 46.914062 61.074219 L 46.425781 60.730469 C 46.15625 60.539062 45.917969 60.34375 45.898438 60.296875 C 45.878906 60.25 45.933594 60 46.011719 59.75 C 46.09375 59.5 46.175781 59.25 46.1875 59.195312 C 46.214844 59.113281 46.195312 59.113281 46.085938 59.195312 C 46.011719 59.25 45.785156 59.40625 45.574219 59.554688 C 45.371094 59.695312 45.167969 59.796875 45.121094 59.777344 C 45.074219 59.75 44.84375 59.59375 44.613281 59.425781 C 44.378906 59.257812 44.1875 59.140625 44.1875 59.167969 Z M 44.1875 59.167969 "/>
<path style=" stroke:none;fill-rule:nonzero;fill:rgb(0%,0%,0%);fill-opacity:1;" d="M 53.851562 59.3125 C 53.886719 59.414062 53.960938 59.65625 54.019531 59.859375 C 54.082031 60.054688 54.113281 60.257812 54.09375 60.304688 C 54.074219 60.359375 53.84375 60.546875 53.582031 60.738281 L 53.09375 61.074219 L 53.757812 61.09375 L 54.417969 61.113281 L 54.59375 61.636719 C 54.695312 61.925781 54.789062 62.175781 54.8125 62.195312 C 54.832031 62.214844 54.925781 61.972656 55.027344 61.664062 L 55.210938 61.085938 L 56.507812 61.046875 L 55.988281 60.683594 C 55.703125 60.480469 55.472656 60.3125 55.472656 60.304688 C 55.472656 60.289062 55.554688 60.054688 55.648438 59.769531 C 55.742188 59.488281 55.8125 59.222656 55.796875 59.1875 C 55.785156 59.164062 55.574219 59.285156 55.324219 59.464844 C 55.074219 59.648438 54.84375 59.796875 54.8125 59.796875 C 54.777344 59.796875 54.585938 59.675781 54.386719 59.519531 C 53.832031 59.101562 53.785156 59.082031 53.851562 59.3125 Z M 53.851562 59.3125 "/>
<path style=" stroke:none;fill-rule:nonzero;fill:rgb(0%,0%,0%);fill-opacity:1;" d="M 48.785156 60.082031 C 48.785156 60.128906 48.878906 60.425781 48.988281 60.742188 C 49.101562 61.0625 49.1875 61.351562 49.1875 61.398438 C 49.1875 61.445312 48.914062 61.675781 48.566406 61.925781 L 47.953125 62.363281 L 49.527344 62.363281 L 49.742188 63.074219 C 49.863281 63.464844 49.980469 63.785156 50 63.785156 C 50.027344 63.785156 50.140625 63.464844 50.261719 63.074219 L 50.488281 62.363281 L 52.046875 62.363281 L 51.433594 61.917969 C 51.085938 61.675781 50.8125 61.453125 50.8125 61.425781 C 50.8125 61.398438 50.90625 61.109375 51.011719 60.777344 C 51.128906 60.445312 51.214844 60.136719 51.214844 60.085938 C 51.214844 60.039062 50.945312 60.195312 50.609375 60.445312 L 50 60.890625 L 49.390625 60.445312 C 49.0625 60.195312 48.785156 60.035156 48.785156 60.082031 Z M 48.785156 60.082031 "/>
</g>
</svg>
